<?xml version="1.0" standalone="no"?>
<!DOCTYPE svg PUBLIC "-//W3C//DTD SVG 20010904//EN"
 "http://www.w3.org/TR/2001/REC-SVG-20010904/DTD/svg10.dtd">
<svg version="1.0" xmlns="http://www.w3.org/2000/svg"
 width="57.000000pt" height="838.000000pt" viewBox="0 0 57.000000 838.000000"
 preserveAspectRatio="xMidYMid meet">

<g transform="translate(0.000000,838.000000) scale(0.100000,-0.100000)"
fill="#000000" stroke="none">
<path d="M135 8365 c-33 -8 -77 -18 -97 -21 l-38 -7 0 -76 0 -76 46 4 c43 3
46 5 41 27 -8 42 21 49 198 49 174 0 207 -8 202 -48 -2 -19 3 -22 36 -25 l37
-3 0 75 c0 66 -2 76 -17 76 -10 0 -38 7 -63 16 -65 23 -268 28 -345 9z m173
-2 c-10 -2 -26 -2 -35 0 -10 3 -2 5 17 5 19 0 27 -2 18 -5z m165 -37 c9 -5 17
-15 17 -23 0 -11 -11 -13 -62 -6 -79 10 -194 10 -275 1 -52 -6 -63 -5 -63 7 0
8 15 19 33 24 36 12 323 8 350 -3z"/>
<path d="M142 8029 c-29 -5 -62 -14 -72 -19 -10 -6 -30 -10 -44 -10 -26 0 -26
-1 -26 -78 l0 -77 46 4 c43 3 46 5 41 27 -8 42 21 49 198 49 174 0 207 -8 202
-48 -2 -19 3 -22 36 -25 l37 -3 0 73 0 74 -67 18 c-78 22 -269 30 -351 15z
m331 -43 c9 -5 17 -14 17 -22 0 -11 -13 -12 -62 -6 -82 9 -208 9 -281 -1 -53
-7 -58 -6 -55 10 2 10 16 21 33 25 39 9 325 4 348 -6z"/>
<path d="M125 7684 c-33 -8 -75 -18 -92 -21 l-33 -5 0 -77 0 -77 43 5 c36 5
42 10 42 29 1 40 29 47 195 47 188 0 212 -5 208 -43 -3 -25 0 -27 35 -30 l38
-3 -3 78 c-2 53 -7 77 -15 76 -6 -2 -31 5 -55 13 -63 23 -285 28 -363 8z m328
-35 c22 -6 37 -16 37 -24 0 -13 -10 -14 -57 -8 -73 10 -221 10 -291 1 -42 -6
-52 -4 -52 8 0 19 16 25 102 33 82 9 204 4 261 -10z"/>
<path d="M133 7350 c-23 -5 -51 -14 -62 -19 -11 -6 -31 -11 -45 -11 -26 0 -26
-1 -26 -78 l0 -78 43 5 c37 5 42 9 45 34 2 16 9 30 15 33 33 12 191 20 261 13
119 -12 127 -15 124 -47 -3 -25 0 -27 32 -27 l35 0 0 75 0 75 -35 6 c-19 4
-59 12 -89 18 -61 13 -235 13 -298 1z m317 -38 c21 -5 36 -15 38 -25 3 -14 -3
-15 -50 -9 -69 9 -240 9 -300 0 -38 -6 -48 -5 -48 7 0 20 12 25 83 35 64 9
216 4 277 -8z"/>
<path d="M140 7010 c-19 -4 -59 -14 -88 -21 l-52 -14 0 -80 c0 -44 4 -75 8
-70 4 6 23 10 42 10 30 0 35 4 38 25 2 14 7 28 10 32 16 16 190 27 271 18 114
-13 122 -16 119 -48 -3 -25 0 -27 32 -27 l35 0 0 75 0 75 -80 16 c-84 18 -272
23 -335 9z m315 -38 c17 -5 30 -15 30 -23 0 -11 -10 -13 -45 -9 -67 7 -248 6
-303 -2 -43 -7 -48 -6 -45 10 5 27 95 42 223 37 61 -2 124 -8 140 -13z"/>
<path d="M110 6664 c-50 -14 -82 -21 -102 -23 -5 -1 -8 -38 -8 -83 0 -46 4
-78 8 -73 4 6 23 10 42 10 31 0 35 3 40 30 4 24 12 31 40 38 54 13 270 12 318
-2 38 -11 42 -15 40 -39 -3 -25 0 -27 32 -27 l35 0 0 74 0 74 -50 14 c-76 22
-327 26 -395 7z m320 -27 c37 -8 55 -17 55 -27 0 -8 -7 -13 -15 -11 -42 9
-272 12 -320 3 -40 -7 -57 -7 -62 1 -11 18 3 26 62 36 77 12 215 11 280 -2z"/>
<path d="M145 6334 c-23 -5 -102 -24 -127 -31 -15 -4 -18 -16 -18 -77 l0 -72
42 0 c39 1 43 4 48 30 7 41 37 48 200 48 165 0 195 -7 195 -48 0 -27 3 -29 35
-29 l35 0 0 74 0 74 -75 18 c-70 17 -276 25 -335 13z m318 -43 c28 -11 33 -40
6 -32 -34 9 -279 12 -326 4 -41 -8 -53 -7 -57 3 -7 17 5 24 62 34 61 12 279 5
315 -9z"/>
<path d="M220 6003 c-38 -3 -166 -26 -207 -39 -9 -2 -13 -27 -13 -76 l0 -73
46 3 c42 4 45 6 42 30 -4 36 29 44 197 44 170 0 200 -7 200 -48 0 -26 3 -29
35 -29 l35 0 0 74 0 74 -70 17 c-73 18 -188 28 -265 23z m243 -52 c28 -11 33
-40 6 -32 -32 10 -278 12 -326 3 -41 -7 -53 -6 -57 4 -6 17 3 23 56 34 56 12
285 6 321 -9z"/>
<path d="M180 5660 c-36 -4 -78 -13 -93 -19 -16 -6 -42 -11 -58 -11 l-29 0 0
-78 0 -77 46 3 c42 4 45 6 42 30 -4 37 30 45 202 45 161 0 195 -8 195 -44 0
-27 3 -29 45 -29 l30 0 0 73 0 73 -77 17 c-98 21 -219 28 -303 17z m289 -49
c23 -13 23 -39 0 -32 -32 10 -297 12 -336 3 -33 -7 -43 -7 -47 4 -6 17 3 23
56 34 59 13 299 6 327 -9z"/>
<path d="M167 5319 c-38 -5 -77 -14 -87 -19 -10 -6 -32 -10 -49 -10 l-31 0 0
-78 0 -77 46 4 c43 3 46 5 41 28 -7 38 28 46 198 46 165 0 200 -7 200 -44 0
-27 3 -29 45 -29 l30 0 0 73 0 72 -73 17 c-90 22 -231 30 -320 17z m301 -48
c12 -6 22 -15 22 -20 0 -4 -71 -6 -157 -3 -87 2 -177 -1 -200 -6 -33 -7 -43
-7 -47 4 -12 32 55 44 224 40 82 -1 144 -7 158 -15z"/>
<path d="M165 4980 c-33 -5 -73 -13 -88 -19 -16 -6 -39 -11 -53 -11 -23 0 -24
-2 -24 -78 l0 -77 46 4 c43 3 46 5 41 28 -7 38 28 46 198 47 173 0 209 -9 199
-49 -6 -24 -4 -25 35 -25 l41 0 0 73 0 72 -73 18 c-86 21 -239 29 -322 17z
m263 -39 c42 -8 71 -25 60 -36 -2 -3 -49 -1 -104 3 -54 5 -141 5 -193 1 -52
-5 -99 -5 -104 -2 -15 9 9 25 50 33 53 11 239 11 291 1z"/>
<path d="M160 4640 c-30 -5 -68 -13 -83 -19 -16 -6 -39 -11 -53 -11 -23 0 -24
-2 -24 -78 l0 -77 46 4 c43 3 46 5 41 28 -7 39 28 47 203 47 169 1 202 -7 197
-47 -2 -19 3 -22 36 -25 l37 -3 0 74 c0 74 0 75 -27 80 -16 3 -46 10 -68 16
-56 15 -239 22 -305 11z m308 -48 c43 -24 25 -34 -45 -25 -86 10 -190 10 -270
0 -53 -7 -63 -6 -63 7 0 9 12 18 28 22 15 3 32 7 37 10 25 9 291 -3 313 -14z"/>
<path d="M157 4300 c-27 -5 -62 -13 -79 -19 -17 -6 -42 -11 -54 -11 -23 0 -24
-3 -24 -78 l0 -77 46 4 c43 3 46 5 41 27 -8 42 21 49 198 49 174 0 207 -8 202
-48 -2 -19 3 -22 36 -25 l37 -3 0 73 0 74 -67 18 c-77 21 -262 30 -336 16z
m296 -41 c22 -6 37 -16 37 -25 0 -13 -9 -14 -57 -7 -73 10 -210 10 -285 0 -48
-6 -58 -5 -58 8 0 8 15 19 33 24 44 13 284 13 330 0z"/>
<path d="M125 3954 c-33 -8 -75 -18 -92 -21 l-33 -5 0 -77 0 -77 43 5 c36 5
42 10 42 29 1 40 29 47 195 47 188 0 212 -5 208 -43 -3 -25 0 -27 32 -27 l35
0 3 70 3 71 -68 18 c-92 26 -286 31 -368 10z m328 -35 c22 -6 37 -16 37 -25 0
-12 -9 -13 -52 -7 -66 10 -225 10 -296 1 -41 -6 -52 -4 -52 7 0 21 15 26 93
35 80 9 212 3 270 -11z"/>
<path d="M120 3614 c-30 -9 -70 -18 -87 -21 l-33 -5 0 -77 0 -77 42 5 c38 5
43 9 48 36 4 26 11 30 50 38 51 9 306 3 333 -8 11 -5 16 -16 15 -34 -3 -24 0
-26 32 -26 l35 0 0 75 c0 60 -3 75 -15 75 -8 0 -33 6 -55 13 -61 22 -296 25
-365 6z m333 -35 c56 -15 43 -35 -19 -29 -72 7 -242 6 -296 -2 -38 -6 -48 -5
-48 7 0 20 13 26 88 35 76 10 218 4 275 -11z"/>
<path d="M169 3280 c-37 -4 -76 -13 -87 -19 -11 -6 -34 -11 -51 -11 l-31 0 0
-78 0 -77 46 4 c43 3 46 5 41 28 -7 38 28 46 198 46 165 0 200 -7 200 -44 0
-27 3 -29 45 -29 l30 0 0 73 0 72 -73 17 c-88 22 -229 29 -318 18z m299 -49
c12 -6 22 -15 22 -20 0 -4 -71 -6 -157 -3 -87 2 -177 -1 -200 -6 -33 -7 -43
-7 -47 4 -12 32 55 44 224 40 82 -1 144 -7 158 -15z"/>
<path d="M163 2940 c-34 -5 -71 -13 -82 -19 -11 -6 -33 -11 -50 -11 l-31 0 0
-78 0 -77 46 4 c43 3 46 5 41 28 -7 38 28 47 198 47 173 0 209 -9 199 -49 -6
-24 -4 -25 35 -25 l41 0 0 73 0 72 -74 18 c-88 22 -235 29 -323 17z m271 -39
c39 -10 64 -26 54 -36 -3 -3 -50 -1 -104 4 -65 7 -131 7 -193 1 -51 -6 -97 -7
-103 -4 -16 10 7 26 49 34 55 11 251 11 297 1z"/>
<path d="M160 2600 c-30 -5 -68 -13 -83 -19 -16 -6 -39 -11 -53 -11 -23 0 -24
-2 -24 -78 l0 -77 46 4 c43 3 46 5 41 28 -7 39 28 47 203 47 169 1 202 -7 197
-47 -2 -19 3 -22 36 -25 l37 -3 0 75 c0 66 -2 76 -17 76 -10 0 -38 7 -62 16
-53 18 -243 27 -321 14z m308 -48 c42 -24 24 -32 -55 -24 -99 9 -159 9 -250
-1 -61 -6 -73 -5 -73 8 0 8 12 17 28 21 15 3 32 7 37 10 25 9 291 -3 313 -14z"/>
<path d="M148 2260 c-32 -5 -67 -14 -77 -20 -11 -5 -31 -10 -45 -10 -26 0 -26
-1 -26 -78 l0 -77 46 4 c43 3 46 5 41 27 -8 42 21 49 198 49 174 0 207 -8 202
-48 -2 -19 3 -22 36 -25 l37 -3 0 73 0 74 -67 18 c-79 21 -261 29 -345 16z
m218 -30 c105 -11 124 -17 124 -36 0 -12 -12 -13 -67 -7 -85 10 -190 10 -270
1 -51 -6 -63 -5 -63 6 0 18 23 26 108 36 37 4 69 8 72 9 3 0 46 -4 96 -9z"/>
<path d="M142 1919 c-29 -5 -62 -14 -72 -19 -10 -6 -30 -10 -44 -10 -26 0 -26
-1 -26 -78 l0 -78 43 5 c36 5 42 10 42 29 1 41 29 47 200 47 174 0 207 -8 202
-48 -2 -19 3 -22 36 -25 l37 -3 0 73 0 74 -67 18 c-79 21 -271 30 -351 15z
m311 -40 c22 -6 37 -16 37 -25 0 -13 -9 -14 -57 -7 -73 10 -222 10 -290 0 -44
-6 -53 -5 -53 7 0 21 13 27 88 36 75 9 218 4 275 -11z"/>
<path d="M125 1574 c-33 -8 -75 -18 -92 -21 l-33 -5 0 -77 0 -77 43 5 c37 5
42 9 45 33 4 38 28 43 202 43 177 0 202 -5 198 -43 -3 -25 0 -27 32 -27 l35 0
0 75 c0 52 -4 74 -12 73 -6 -2 -31 5 -55 13 -63 24 -284 28 -363 8z m333 -35
c48 -16 35 -35 -19 -29 -65 7 -247 6 -301 -2 -38 -6 -48 -5 -48 7 0 7 5 17 10
20 39 24 287 26 358 4z"/>
<path d="M133 1240 c-23 -5 -51 -14 -62 -19 -11 -6 -31 -11 -45 -11 -26 0 -26
-1 -26 -78 l0 -78 42 5 c38 5 43 9 48 36 4 25 11 30 45 38 46 10 311 4 338 -8
11 -5 16 -16 15 -34 -3 -24 0 -26 32 -26 l35 0 0 74 0 75 -80 18 c-85 19 -265
23 -342 8z m322 -38 c17 -5 30 -15 30 -23 0 -11 -10 -13 -45 -9 -66 7 -269 6
-312 -2 -30 -5 -38 -4 -38 8 0 18 14 24 83 35 58 9 235 3 282 -9z"/>
<path d="M115 895 c-27 -8 -65 -18 -83 -21 l-32 -7 0 -81 c0 -44 4 -76 8 -71
4 6 23 10 42 10 31 0 35 3 40 30 4 24 12 31 40 37 53 12 272 11 319 -2 37 -10
41 -14 39 -38 -3 -25 0 -27 32 -27 l35 0 0 74 0 74 -50 14 c-76 22 -328 27
-390 8z m340 -33 c47 -13 39 -38 -10 -32 -59 7 -274 6 -317 -2 -33 -6 -38 -4
-38 12 0 15 10 20 48 25 26 3 54 8 62 10 24 6 222 -4 255 -13z"/>
<path d="M140 563 c-14 -2 -41 -9 -60 -16 -34 -11 -41 -12 -67 -15 -9 -2 -13
-26 -13 -84 0 -46 4 -78 8 -73 4 6 23 10 42 10 31 0 35 3 40 29 4 22 13 32 35
38 38 11 278 11 325 0 30 -7 35 -12 35 -37 0 -28 3 -30 35 -30 l35 0 0 74 0
74 -75 18 c-71 18 -267 24 -340 12z m324 -42 c27 -11 32 -39 5 -32 -38 9 -271
12 -319 3 -40 -7 -57 -7 -62 1 -11 18 2 26 62 36 67 12 275 6 314 -8z"/>
<path d="M105 216 c-27 -8 -62 -16 -77 -20 -27 -6 -28 -8 -28 -79 l0 -72 42 1
c40 1 43 3 46 32 3 29 6 31 60 39 70 10 266 7 307 -5 25 -7 30 -14 30 -38 0
-27 3 -29 35 -29 l35 0 0 74 0 74 -75 18 c-90 22 -298 25 -375 5z m358 -35
c28 -11 33 -40 6 -32 -34 9 -270 12 -321 3 -46 -7 -58 -6 -62 5 -7 16 4 21 70
33 63 11 270 5 307 -9z"/>
</g>
</svg>
