<?xml version="1.0" standalone="no"?>
<!DOCTYPE svg PUBLIC "-//W3C//DTD SVG 20010904//EN"
 "http://www.w3.org/TR/2001/REC-SVG-20010904/DTD/svg10.dtd">
<svg version="1.0" xmlns="http://www.w3.org/2000/svg"
 width="1805.000000pt" height="324.000000pt" viewBox="0 0 1805.000000 324.000000"
 preserveAspectRatio="xMidYMid meet">

<g transform="translate(0.000000,324.000000) scale(0.100000,-0.100000)"
fill="#000000" stroke="none">
<path d="M17510 2220 c0 -5 5 -10 11 -10 5 0 7 5 4 10 -3 6 -8 10 -11 10 -2 0
-4 -4 -4 -10z"/>
<path d="M17474 2195 c1 -30 18 -28 23 3 2 14 -2 22 -11 22 -9 0 -13 -10 -12
-25z"/>
<path d="M14900 2186 c0 -2 9 -6 20 -9 11 -3 18 -1 14 4 -5 9 -34 13 -34 5z"/>
<path d="M14865 2145 c-23 -28 -43 -32 -51 -10 -4 8 -10 13 -14 10 -5 -3 -11
-1 -15 4 -9 15 -35 1 -35 -18 0 -14 2 -14 10 -1 6 9 10 11 10 3 0 -7 7 -10 15
-7 8 4 15 1 15 -5 0 -6 5 -10 11 -8 6 1 14 -4 16 -11 3 -7 -1 -11 -7 -10 -7 2
-15 -3 -17 -9 -3 -7 1 -13 8 -13 8 0 5 -8 -7 -22 -19 -21 -19 -21 5 -15 14 3
31 1 38 -5 9 -7 13 -7 13 1 0 6 5 11 10 11 6 0 9 -3 9 -7 -4 -23 3 -35 16 -29
9 3 15 0 15 -9 0 -9 -6 -12 -17 -8 -12 5 -14 3 -8 -7 5 -8 8 -29 7 -46 -2 -25
2 -34 18 -39 12 -4 26 -2 33 3 13 11 57 -2 57 -17 0 -5 7 -12 16 -15 14 -5 15
-4 4 9 -7 8 -9 15 -5 15 4 0 1 8 -6 17 -13 15 -12 16 9 11 12 -4 22 -2 22 3 0
8 -15 13 -32 10 -5 0 -8 4 -8 9 0 6 7 10 15 10 8 0 15 5 15 11 0 6 6 9 14 6
24 -10 26 8 11 108 -1 11 -3 25 -4 30 -1 6 -6 3 -11 -5 -8 -13 -10 -12 -10 3
0 23 -16 22 -32 -2 -14 -19 -14 -19 -26 0 -7 11 -17 17 -23 13 -13 -8 12 38
26 48 6 4 2 8 -8 8 -10 0 -20 -7 -23 -15 -5 -11 -10 -13 -19 -5 -6 5 -15 7
-19 3 -4 -4 -10 -2 -14 4 -5 8 -14 4 -27 -12z m180 -123 c-3 -3 -11 0 -18 7
-9 10 -8 11 6 5 10 -3 15 -9 12 -12z m-125 -102 c0 -5 -5 -10 -11 -10 -5 0 -7
5 -4 10 3 6 8 10 11 10 2 0 4 -4 4 -10z"/>
<path d="M17620 2159 c0 -5 -4 -7 -10 -4 -5 3 -10 1 -10 -5 0 -7 7 -9 16 -6 9
3 20 6 25 6 5 0 9 5 9 10 0 6 -7 10 -15 10 -8 0 -15 -5 -15 -11z"/>
<path d="M17859 2153 c-1 -10 -1 -24 0 -30 1 -7 -8 -13 -19 -13 -12 0 -18 5
-15 10 3 6 1 10 -4 10 -17 0 -13 -30 5 -37 8 -3 20 -1 27 6 6 6 19 11 29 11
17 0 18 2 3 30 -18 34 -24 37 -26 13z"/>
<path d="M14375 2150 c-3 -5 -1 -10 4 -10 6 0 11 5 11 10 0 6 -2 10 -4 10 -3
0 -8 -4 -11 -10z"/>
<path d="M14547 2149 c9 -11 7 -14 -13 -15 -13 -1 -22 1 -19 5 2 4 -3 8 -11 8
-10 0 -11 -4 -4 -11 15 -15 12 -43 -5 -43 -9 0 -14 5 -12 11 2 6 -10 17 -26
24 -40 16 -46 15 -42 -8 2 -11 0 -20 -6 -20 -5 0 -9 -6 -9 -14 0 -7 -7 -19
-15 -26 -22 -18 -19 -30 8 -30 19 -1 20 -2 5 -10 -9 -6 -27 -27 -39 -48 -13
-20 -28 -40 -33 -44 -15 -10 -2 -20 18 -12 9 3 13 10 10 15 -3 5 0 9 6 9 6 0
9 4 6 9 -3 4 6 6 19 3 15 -2 25 -11 25 -21 0 -10 9 -17 20 -18 11 -1 20 4 20
10 0 7 4 6 10 -3 6 -9 10 -11 10 -3 0 7 7 10 15 6 9 -3 15 -13 14 -22 -3 -36
0 -44 15 -32 10 8 15 8 18 1 5 -15 68 0 68 16 0 8 6 13 13 12 6 -2 11 5 11 14
-1 10 4 14 12 11 9 -3 13 7 12 39 0 54 -4 61 -30 47 -15 -8 -19 -8 -14 0 4 6
2 11 -3 11 -6 0 -11 -4 -11 -9 0 -16 -38 -20 -44 -4 -3 8 -10 12 -15 8 -23
-13 -18 14 4 29 24 16 25 16 25 -6 0 -22 1 -22 25 6 14 16 25 41 25 56 0 25
-4 29 -65 59 -5 3 -5 -2 2 -10z m53 -58 c0 -6 -4 -13 -10 -16 -5 -3 -10 1 -10
9 0 9 5 16 10 16 6 0 10 -4 10 -9z m-172 -37 c2 -16 -1 -23 -8 -19 -5 3 -10
18 -10 32 0 32 13 22 18 -13z m152 -74 c0 -5 -4 -10 -10 -10 -5 0 -10 -7 -10
-15 0 -16 -12 -20 -23 -8 -8 7 21 43 35 43 4 0 8 -4 8 -10z m-140 -50 c0 -5
-2 -10 -4 -10 -3 0 -8 5 -11 10 -3 6 -1 10 4 10 6 0 11 -4 11 -10z m127 -26
c-3 -3 -12 -4 -19 -1 -8 3 -5 6 6 6 11 1 17 -2 13 -5z"/>
<path d="M14985 2150 c-3 -5 -1 -10 4 -10 6 0 11 5 11 10 0 6 -2 10 -4 10 -3
0 -8 -4 -11 -10z"/>
<path d="M17497 2141 c-4 -17 -3 -21 5 -13 5 5 8 16 6 23 -3 8 -7 3 -11 -10z"/>
<path d="M17736 2147 c3 -10 9 -15 12 -12 3 3 0 11 -7 18 -10 9 -11 8 -5 -6z"/>
<path d="M17681 2124 c-25 -25 -48 -33 -35 -13 5 9 -1 10 -20 5 -16 -4 -26 -2
-26 5 0 6 -6 9 -14 6 -7 -3 -18 -1 -23 4 -10 10 -56 -18 -48 -31 3 -4 -2 -13
-10 -20 -20 -17 -19 -34 2 -26 10 4 15 4 11 1 -4 -4 3 -18 15 -31 14 -16 23
-20 28 -13 4 7 15 9 25 5 18 -7 18 -8 2 -17 -26 -14 -22 -37 5 -35 12 1 21 7
20 14 -4 17 12 15 27 -3 11 -13 10 -14 -4 -9 -13 5 -15 2 -10 -12 11 -31 15
-35 26 -28 6 4 5 10 -3 16 -11 8 -11 9 1 5 15 -4 15 -8 7 -37 -2 -8 -2 -12 0
-9 2 3 16 4 31 3 15 -1 35 7 47 19 20 19 20 19 -2 13 -19 -6 -21 -4 -14 20 4
15 17 34 28 41 19 13 21 13 18 -4 -1 -10 -8 -17 -16 -15 -10 2 -10 0 1 -13 15
-18 26 -11 32 20 2 11 11 19 18 17 10 -2 9 3 -4 17 -11 12 -14 21 -8 21 7 0
12 5 12 11 0 5 -4 7 -10 4 -6 -3 -10 5 -10 19 0 31 -37 56 -51 35 -6 -10 -9
-6 -9 14 0 32 -7 33 -39 1z m89 -33 c0 -6 -4 -13 -10 -16 -5 -3 -10 1 -10 9 0
9 5 16 10 16 6 0 10 -4 10 -9z m-35 -11 c3 -5 1 -10 -4 -10 -6 0 -11 5 -11 10
0 6 2 10 4 10 3 0 8 -4 11 -10z m-111 -21 c-3 -5 -10 -7 -15 -3 -5 3 -7 10 -3
15 3 5 10 7 15 3 5 -3 7 -10 3 -15z m76 -139 c0 -5 -2 -10 -4 -10 -3 0 -8 5
-11 10 -3 6 -1 10 4 10 6 0 11 -4 11 -10z"/>
<path d="M14280 2125 c0 -8 5 -15 10 -15 6 0 10 7 10 15 0 8 -4 15 -10 15 -5
0 -10 -7 -10 -15z"/>
<path d="M14010 2089 c0 -5 5 -7 10 -4 6 3 10 8 10 11 0 2 -4 4 -10 4 -5 0
-10 -5 -10 -11z"/>
<path d="M14208 2065 c2 -14 8 -25 12 -25 4 0 5 11 2 25 -2 14 -8 25 -12 25
-4 0 -5 -11 -2 -25z"/>
<path d="M17470 2049 c0 -8 10 -20 23 -28 l22 -14 -20 24 c-11 13 -21 26 -22
28 -2 2 -3 -2 -3 -10z"/>
<path d="M14030 2031 c0 -6 9 -8 19 -6 12 2 21 -3 24 -16 3 -10 11 -19 19 -19
10 0 9 3 -2 10 -8 5 -11 10 -6 10 5 0 3 7 -4 15 -14 17 -50 21 -50 6z"/>
<path d="M14258 2029 c-2 -7 -21 -13 -44 -13 -52 -1 -92 -38 -62 -57 9 -6 6
-8 -10 -6 -13 2 -28 10 -33 18 -7 12 -9 12 -10 -1 -1 -8 0 -22 1 -30 1 -11 -2
-10 -12 3 -13 17 -14 17 -15 -2 -1 -11 1 -20 5 -20 26 4 42 -2 36 -13 -4 -7
-4 -10 1 -6 4 4 14 3 22 -3 10 -9 17 -8 28 1 12 10 18 10 30 0 8 -7 21 -10 29
-7 8 3 17 1 19 -6 2 -7 8 -9 12 -5 4 4 3 14 -4 22 -8 9 -8 21 -2 39 7 17 7 28
1 32 -6 4 -10 3 -10 -2 0 -4 -4 -1 -9 7 -16 24 -1 32 18 9 15 -18 21 -20 39
-10 12 6 22 15 22 20 0 11 -30 36 -30 25 0 -5 -4 -3 -9 5 -7 11 -9 11 -13 0z"/>
<path d="M17480 1989 c0 -5 5 -7 10 -4 6 3 10 8 10 11 0 2 -4 4 -10 4 -5 0
-10 -5 -10 -11z"/>
<path d="M17515 1990 c3 -5 8 -10 11 -10 2 0 4 5 4 10 0 6 -5 10 -11 10 -5 0
-7 -4 -4 -10z"/>
<path d="M17985 1990 c-3 -5 -1 -10 4 -10 6 0 11 5 11 10 0 6 -2 10 -4 10 -3
0 -8 -4 -11 -10z"/>
<path d="M14830 1971 c0 -5 6 -14 14 -20 11 -9 15 -8 20 5 9 23 8 24 -14 24
-11 0 -20 -4 -20 -9z"/>
<path d="M13890 1958 c0 -8 5 -19 12 -26 9 -9 9 -12 -2 -12 -7 0 -11 -2 -8 -5
3 -3 18 1 34 10 l29 15 -28 0 c-16 0 -26 4 -22 9 3 5 1 12 -5 16 -5 3 -10 0
-10 -7z"/>
<path d="M14280 1959 c0 -5 5 -7 10 -4 6 3 10 8 10 11 0 2 -4 4 -10 4 -5 0
-10 -5 -10 -11z"/>
<path d="M13770 1942 c0 -5 7 -15 15 -22 8 -7 15 -8 15 -2 0 5 -7 15 -15 22
-8 7 -15 8 -15 2z"/>
<path d="M14260 1930 c0 -11 9 -24 19 -30 30 -15 39 -11 11 5 -14 8 -19 14
-12 15 17 0 15 17 -3 24 -10 4 -15 -1 -15 -14z"/>
<path d="M17990 1939 c0 -5 5 -7 10 -4 6 3 10 8 10 11 0 2 -4 4 -10 4 -5 0
-10 -5 -10 -11z"/>
<path d="M18041 1943 c-1 -6 -11 -15 -23 -19 -26 -7 -58 -38 -58 -54 0 -19
-18 -10 -23 12 -4 12 -9 20 -11 17 -3 -3 0 -20 6 -37 9 -24 17 -31 30 -26 11
3 19 0 19 -8 1 -7 5 3 8 22 4 20 12 34 19 33 7 -2 11 1 10 6 -2 5 5 16 16 24
10 7 16 20 13 28 -3 8 -6 9 -6 2z"/>
<path d="M17775 1930 c-3 -6 1 -7 9 -4 18 7 21 14 7 14 -6 0 -13 -4 -16 -10z"/>
<path d="M14795 1920 c3 -5 8 -10 11 -10 2 0 4 5 4 10 0 6 -5 10 -11 10 -5 0
-7 -4 -4 -10z"/>
<path d="M5685 1910 c-3 -5 -1 -10 4 -10 6 0 11 5 11 10 0 6 -2 10 -4 10 -3 0
-8 -4 -11 -10z"/>
<path d="M5971 1915 c-1 -13 -51 -36 -51 -24 0 5 -4 9 -10 9 -5 0 -10 -7 -10
-16 0 -14 -3 -14 -15 -4 -8 7 -15 9 -15 6 0 -4 -9 -2 -20 4 -16 8 -26 7 -42
-5 -13 -8 -19 -15 -14 -15 5 0 3 -7 -4 -15 -7 -9 -18 -14 -24 -12 -6 3 -26 -2
-45 -9 -41 -17 -41 -17 -41 1 0 8 -4 15 -10 15 -5 0 -10 7 -10 15 0 22 -17 18
-34 -7 -9 -12 -16 -19 -16 -15 0 4 -22 -5 -50 -20 -27 -15 -50 -32 -50 -39 0
-8 -12 -9 -42 -4 -48 9 -70 -5 -61 -39 4 -16 2 -20 -10 -16 -15 7 -47 -19 -48
-38 0 -7 -5 -1 -10 13 -9 22 -12 23 -22 9 -11 -14 -14 -14 -26 -2 -7 8 -10 21
-7 29 3 8 -1 14 -10 14 -11 0 -14 -5 -9 -17 8 -21 8 -22 6 -47 -1 -20 -1 -20
-19 0 -18 19 -24 41 -9 36 4 -1 7 4 7 12 0 8 -8 13 -17 11 -10 -2 -22 -4 -26
-4 -5 -1 -5 -5 -2 -11 3 -5 2 -10 -4 -10 -5 0 -13 5 -16 10 -10 16 -38 12 -32
-4 3 -8 0 -17 -8 -20 -8 -3 -16 0 -18 7 -3 9 -8 9 -19 -1 -11 -9 -18 -9 -23
-3 -4 7 -12 7 -25 -1 -16 -10 -22 -9 -36 7 -13 16 -15 17 -10 3 3 -10 1 -20
-4 -23 -6 -4 -10 6 -10 21 0 15 -3 24 -6 21 -10 -10 -44 12 -44 28 0 9 -6 12
-17 8 -10 -4 -14 -2 -10 4 4 7 -2 10 -17 9 -13 0 -23 -3 -21 -6 2 -3 0 -12 -5
-19 -6 -11 -10 -9 -19 8 -7 12 -9 26 -6 31 3 5 -3 14 -14 19 -29 16 -33 14
-25 -11 6 -20 5 -21 -9 -10 -9 8 -19 22 -22 33 -4 10 -13 19 -21 19 -8 0 -14
5 -14 10 0 6 -5 10 -11 10 -6 0 -7 -5 -2 -12 13 -22 12 -37 -3 -31 -12 4 -12
0 -4 -22 14 -37 13 -38 -18 -32 -35 7 -47 -1 -56 -35 -5 -20 -13 -28 -29 -28
-12 0 -29 -9 -37 -20 -8 -11 -20 -20 -27 -20 -7 0 -13 -6 -13 -13 0 -7 -13
-21 -30 -30 -16 -10 -30 -14 -30 -8 0 5 8 11 18 13 15 3 14 6 -6 16 -18 10
-22 10 -20 0 3 -15 -32 -12 -47 4 -7 7 -3 9 13 5 13 -3 21 -3 18 0 -3 4 -1 12
5 20 9 9 8 13 0 13 -6 0 -10 3 -10 8 4 22 -3 34 -16 28 -9 -3 -18 1 -21 9 -5
11 -11 12 -25 5 -15 -8 -17 -15 -9 -35 9 -24 8 -25 -25 -23 -20 2 -35 5 -33 8
1 3 -4 15 -11 28 -10 19 -15 21 -27 11 -8 -6 -14 -18 -14 -26 0 -8 -4 -12 -9
-8 -5 3 -16 -2 -24 -10 -14 -13 -17 -13 -31 0 -8 9 -17 11 -21 6 -6 -11 -75
-9 -94 4 -10 5 -12 4 -7 -3 9 -15 -16 -16 -30 -2 -15 15 -44 2 -44 -19 0 -24
-20 -41 -47 -41 -13 0 -26 -7 -29 -15 -4 -8 -14 -15 -23 -15 -14 0 -14 2 -1
10 21 13 3 13 -22 -1 -12 -6 -18 -7 -14 -1 9 15 -21 23 -50 12 -14 -6 -38 -10
-54 -10 -16 0 -32 -5 -35 -10 -3 -6 -1 -10 5 -10 6 0 8 -5 5 -10 -4 -6 -16 -8
-28 -4 -19 6 -20 5 -9 -9 8 -9 19 -14 27 -11 7 3 16 1 20 -5 3 -6 1 -11 -4
-11 -6 0 -11 -9 -11 -20 0 -11 5 -20 10 -20 6 0 9 3 8 8 -2 4 2 7 7 7 6 0 8
-4 6 -10 -3 -5 -4 -23 -3 -38 1 -17 -3 -25 -9 -21 -6 3 -3 -5 6 -20 10 -15 20
-24 23 -21 3 2 11 0 19 -6 16 -14 18 -43 1 -33 -7 4 -8 3 -4 -4 7 -12 36 -5
36 9 0 5 5 9 12 9 6 0 4 -7 -5 -18 -21 -23 -22 -36 -3 -29 8 3 17 -1 20 -9 3
-9 10 -13 15 -10 5 3 7 -3 4 -14 -3 -11 -10 -19 -17 -18 -16 4 -56 -34 -56
-52 0 -9 8 -16 20 -16 10 0 17 2 15 5 -3 2 0 10 6 18 9 10 15 10 25 2 19 -16
18 -40 -1 -33 -8 4 -15 5 -15 3 0 -2 -4 -19 -9 -37 -6 -20 -6 -30 0 -27 12 8
11 1 -2 -29 -10 -21 -14 -23 -25 -11 -8 7 -14 18 -14 22 0 5 -7 18 -16 29 -8
10 -13 14 -10 8 3 -6 -1 -20 -8 -30 -13 -17 -14 -17 -9 8 4 23 2 26 -17 21
-16 -4 -28 2 -46 22 -13 16 -24 25 -24 20 0 -4 -7 -2 -15 5 -20 16 -38 4 -26
-19 15 -27 -2 -45 -19 -21 -8 11 -18 20 -22 20 -9 0 12 -41 26 -51 4 -4 3 -10
-3 -13 -6 -4 -11 -19 -11 -33 0 -22 -2 -24 -15 -13 -9 8 -13 21 -10 34 4 15 1
13 -10 -6 -9 -16 -20 -28 -25 -28 -18 0 -10 -19 10 -25 15 -5 17 -11 10 -30
-5 -12 -6 -26 -3 -29 4 -3 -1 -6 -10 -6 -21 0 -22 -19 -2 -26 8 -4 15 -11 15
-16 0 -7 -4 -7 -12 0 -24 20 -72 18 -90 -3 -15 -17 -19 -18 -27 -5 -8 12 -13
12 -22 3 -10 -10 -9 -14 3 -18 9 -4 13 -15 11 -29 -4 -18 1 -25 19 -30 14 -4
18 -9 11 -13 -22 -9 -14 -20 11 -16 13 3 26 0 30 -5 3 -6 -8 -9 -27 -8 -21 1
-33 7 -35 19 -2 9 -8 17 -13 17 -5 0 -9 9 -9 19 0 11 -4 23 -10 26 -6 3 -10
-4 -10 -17 0 -16 -3 -19 -9 -10 -7 11 -11 11 -22 -1 -8 -7 -22 -14 -31 -14
-19 0 -33 30 -23 47 4 6 2 17 -5 25 -7 9 -8 15 0 20 5 3 10 15 10 25 0 21 -31
80 -42 80 -5 0 -8 4 -8 9 0 5 8 7 18 4 12 -3 18 2 19 16 1 13 -5 21 -20 23
-24 3 -29 22 -14 53 9 18 9 19 -7 6 -9 -8 -19 -11 -23 -8 -3 4 6 16 20 28 21
16 26 26 21 46 -5 18 -4 24 5 19 6 -4 20 -4 32 -1 17 6 19 12 14 37 -5 20 -4
28 3 24 6 -3 13 -2 17 4 4 6 -4 9 -19 8 -14 -1 -28 -8 -31 -16 -3 -7 -9 -10
-15 -7 -5 3 -10 0 -10 -7 0 -10 -3 -9 -9 1 -8 13 -12 12 -28 -5 -10 -11 -14
-14 -9 -7 5 7 6 14 2 14 -12 3 -21 6 -38 13 -10 5 -25 5 -34 2 -10 -4 -15 0
-13 12 3 34 -1 44 -16 39 -8 -4 -17 -2 -20 3 -4 6 -16 10 -28 10 -13 0 -33 7
-45 16 -12 8 -27 12 -32 9 -6 -3 -10 -1 -10 6 0 8 -6 6 -18 -4 -10 -10 -28
-17 -40 -17 -25 0 -28 -10 -10 -28 7 -7 8 -12 2 -12 -16 0 -34 22 -34 42 0 10
-4 18 -10 18 -5 0 -7 -7 -4 -15 4 -8 1 -15 -5 -15 -6 0 -11 7 -11 16 0 9 -6
14 -12 11 -7 -2 -12 -13 -10 -23 2 -16 1 -17 -8 -4 -9 13 -12 13 -21 -2 -5
-10 -15 -18 -20 -18 -6 0 -7 6 -3 13 5 8 2 7 -9 -2 -10 -7 -16 -20 -15 -27 2
-7 -1 -13 -7 -13 -5 -1 -10 5 -10 12 0 6 -6 16 -14 21 -22 13 -88 11 -106 -4
-8 -7 -15 -8 -15 -3 0 5 -9 9 -20 9 -11 0 -20 -5 -20 -10 0 -5 -8 -2 -18 7
-17 16 -19 16 -32 -8 -7 -14 -20 -25 -27 -25 -8 0 -11 5 -7 11 4 7 1 10 -7 7
-8 -3 -16 -13 -18 -24 -4 -24 -30 -43 -58 -44 -12 0 -25 -5 -28 -10 -4 -6 -16
-8 -28 -4 -19 6 -20 5 -8 -9 11 -14 11 -18 -3 -23 -9 -3 -23 -3 -32 0 -12 5
-15 2 -10 -10 6 -15 4 -15 -20 1 -20 13 -29 14 -38 5 -8 -8 -6 -9 9 -4 20 7
20 7 0 -9 -12 -9 -22 -11 -26 -6 -6 11 -22 -6 -32 -33 -4 -13 -17 -18 -42 -18
-19 0 -35 5 -35 10 0 6 -7 10 -15 10 -8 0 -15 7 -15 15 0 8 -6 15 -14 15 -24
0 -28 17 -9 36 17 17 17 18 0 11 -13 -5 -17 -2 -15 11 2 12 -3 16 -16 14 -10
-2 -22 2 -26 8 -6 9 -13 9 -29 1 -11 -7 -21 -15 -21 -20 0 -5 -11 -6 -23 -4
-18 4 -24 0 -23 -14 1 -10 -3 -18 -7 -18 -5 0 -14 -11 -21 -24 -13 -23 -13
-23 -18 -3 -4 14 0 22 13 25 23 6 26 55 4 63 -20 8 -45 -13 -45 -38 0 -10 -4
-17 -8 -14 -4 2 -8 -4 -8 -14 0 -10 3 -17 7 -15 9 6 52 -42 55 -60 3 -18 -29
-37 -49 -29 -8 3 -22 -2 -31 -11 -14 -14 -16 -14 -16 -1 0 8 8 20 18 25 9 6
11 11 5 11 -7 0 -13 8 -13 18 0 14 2 15 10 2 6 -9 10 -10 10 -3 0 16 -17 26
-25 13 -4 -6 -11 -8 -16 -5 -5 4 -9 2 -9 -3 0 -6 7 -13 16 -16 9 -4 14 -9 11
-12 -3 -3 -17 2 -31 11 -14 9 -30 14 -35 11 -5 -4 -12 -2 -15 3 -4 5 -17 8
-31 6 -14 -1 -25 2 -25 6 0 5 -4 9 -9 9 -6 0 -8 -9 -6 -20 2 -11 1 -19 -3 -19
-25 4 -42 -3 -42 -18 0 -15 -2 -16 -10 -3 -5 8 -10 11 -10 5 0 -5 -13 -19 -27
-29 -23 -17 -26 -17 -20 -3 4 11 1 17 -9 17 -9 0 -12 5 -8 12 5 7 2 9 -8 5
-12 -4 -18 2 -24 21 -4 15 -7 30 -6 33 1 3 -15 5 -34 3 -19 -1 -32 1 -29 6 11
18 -21 26 -55 14 -19 -7 -29 -13 -21 -13 17 -1 6 -14 -13 -17 -8 -1 -16 10
-18 27 -5 32 1 36 21 16 11 -9 10 -7 0 10 -8 13 -23 23 -34 23 -20 1 -20 1 -1
15 21 16 17 18 -26 15 -19 -1 -28 3 -28 13 0 33 69 62 71 29 1 -9 5 0 10 21 6
25 5 45 -1 58 -6 10 -8 19 -4 19 13 0 -29 40 -57 54 -20 10 -30 11 -38 3 -8
-8 -11 -8 -11 0 0 7 5 15 10 18 8 5 7 11 -1 21 -12 15 -33 9 -24 -6 3 -5 -2
-21 -11 -36 -13 -19 -15 -30 -7 -43 6 -9 10 -34 8 -54 -2 -35 0 -37 27 -37 15
0 28 5 28 12 0 9 3 9 11 1 15 -15 2 -34 -19 -31 -9 2 -16 -2 -15 -7 3 -21 -38
-14 -46 8 l-8 22 -7 -22 c-4 -12 -3 -31 3 -41 5 -10 6 -24 1 -32 -6 -10 -14
-7 -35 14 -23 23 -29 25 -43 14 -14 -10 -15 -10 -4 2 6 8 12 21 12 29 0 10 -9
7 -28 -12 -20 -19 -31 -24 -39 -16 -7 7 -15 6 -25 -5 -11 -10 -18 -12 -26 -4
-6 6 -18 7 -29 3 -41 -18 -54 -15 -66 13 -12 29 -37 33 -37 6 0 -17 -5 -17
-33 -2 -20 10 -21 10 -8 -6 12 -14 12 -16 -3 -10 -9 3 -16 1 -16 -6 0 -6 -4
-8 -10 -5 -5 3 -10 1 -10 -5 0 -6 -4 -8 -10 -5 -5 3 -10 0 -10 -8 0 -7 -8 -14
-17 -14 -10 1 -31 0 -48 -2 l-30 -2 30 -13 c20 -8 25 -14 15 -18 -17 -6 -74
15 -65 24 3 3 -1 8 -10 11 -8 4 -15 2 -15 -2 0 -5 -10 -7 -22 -3 -14 3 -19 2
-14 -6 4 -7 1 -12 -8 -12 -10 0 -13 -6 -9 -17 6 -16 5 -17 -12 -3 -17 14 -18
14 -6 -7 9 -19 9 -23 -2 -23 -7 0 -19 6 -26 13 -8 7 -11 7 -8 1 4 -7 0 -11
-11 -10 -10 0 -16 -5 -13 -14 8 -37 7 -45 -9 -55 -10 -5 -27 -16 -38 -22 -18
-11 -20 -10 -24 16 -3 20 0 28 10 27 8 -1 20 8 28 19 12 19 12 21 -6 22 -11 1
-20 -3 -20 -9 0 -5 -7 -7 -16 -4 -8 3 -13 2 -9 -3 3 -5 0 -11 -6 -13 -9 -3 -9
-9 0 -26 10 -18 9 -21 -4 -16 -9 4 -15 1 -15 -7 0 -9 -5 -7 -11 4 -10 18 -12
18 -31 -3 -15 -16 -23 -19 -32 -10 -8 8 -7 13 4 20 13 8 12 10 -3 10 -9 0 -25
-10 -35 -22 -9 -12 -28 -32 -41 -45 -22 -21 -25 -22 -37 -5 -10 14 -15 15 -26
4 -10 -10 -16 -8 -29 10 l-17 22 5 -30 c3 -18 1 -24 -4 -17 -6 9 -12 7 -22 -9
-11 -18 -11 -20 2 -15 11 4 13 0 10 -14 -3 -12 -11 -18 -19 -15 -17 7 -18 -6
-2 -22 19 -19 4 -23 -41 -13 -36 8 -41 7 -41 -9 0 -10 6 -21 13 -23 10 -4 10
-6 0 -6 -10 -1 -13 -98 -13 -451 l0 -450 910 0 c600 0 910 3 910 10 0 6 5 10
11 10 5 0 8 -4 5 -8 -3 -5 1 -9 8 -9 8 0 11 8 9 18 -3 10 8 31 27 50 18 19 28
27 22 18 -9 -11 -8 -19 0 -27 21 -21 30 -13 24 21 -3 17 -1 39 4 47 8 13 10
13 10 -2 0 -9 5 -29 11 -45 8 -21 12 -24 19 -13 13 21 38 -5 33 -34 -6 -30 9
-39 33 -21 17 13 18 14 2 15 -21 0 -23 11 -5 29 10 11 9 13 -3 9 -16 -5 -52
21 -44 33 2 4 -6 5 -18 2 -18 -5 -21 -3 -11 7 6 7 9 18 6 25 -3 10 2 12 18 8
15 -4 20 -3 15 5 -4 7 -2 12 3 12 6 0 11 -6 11 -12 1 -8 6 -6 14 5 9 12 16 14
21 8 12 -20 38 -13 32 9 -3 14 0 20 10 20 11 0 14 6 10 21 -4 13 2 29 14 42
10 11 19 16 19 9 0 -7 7 -9 17 -5 11 4 12 8 5 11 -23 7 -12 19 14 14 16 -3 23
-10 20 -18 -3 -8 0 -11 10 -7 7 3 14 0 14 -7 0 -7 8 -10 19 -7 15 3 17 0 13
-17 -5 -21 -5 -21 16 -3 12 11 26 16 33 11 7 -4 10 -3 5 4 -3 6 -2 13 4 17 6
3 13 -1 16 -10 5 -12 9 -13 20 -4 20 17 42 -5 36 -36 -2 -15 0 -25 7 -25 6 0
19 -16 28 -35 9 -19 24 -35 33 -35 9 0 22 -6 29 -12 11 -11 13 -10 8 4 -3 9 0
22 8 28 10 8 17 6 29 -11 15 -22 13 -39 -5 -39 -6 0 -7 4 -4 10 3 6 1 10 -4
10 -6 0 -12 -6 -13 -12 0 -7 -2 -17 -3 -23 -2 -5 -3 -15 -4 -22 0 -6 -10 -9
-21 -6 -12 3 -20 0 -20 -6 0 -7 5 -9 10 -6 6 3 13 -1 16 -9 5 -12 22 -15 75
-15 61 1 69 3 69 20 0 10 5 19 12 19 6 0 4 8 -6 19 -13 14 -14 24 -6 46 9 23
7 28 -8 32 -10 2 -19 14 -19 26 -2 17 0 19 7 7 11 -17 11 -16 14 23 1 19 -2
26 -12 22 -7 -3 -10 0 -7 6 4 5 1 17 -6 25 -16 19 3 34 33 26 14 -3 21 1 25
17 3 11 10 21 15 21 5 0 6 5 2 12 -5 7 -3 8 5 4 7 -5 10 -14 7 -22 -3 -9 0
-11 12 -7 25 10 32 25 17 37 -8 6 -17 24 -21 40 -6 25 -4 28 10 23 12 -5 16
-1 16 14 0 28 18 59 34 59 26 0 63 25 59 40 -2 8 3 3 12 -12 21 -37 36 -36 25
2 -5 19 -5 28 1 25 5 -4 9 1 9 9 0 8 -4 17 -10 21 -5 3 -7 12 -4 20 4 8 10 12
15 9 5 -3 7 -9 4 -14 -3 -5 20 -34 51 -65 52 -52 57 -55 69 -38 9 12 10 23 4
35 -12 22 -11 28 1 28 6 0 10 -6 10 -14 0 -15 21 -26 51 -26 16 0 19 5 14 23
-3 12 -3 17 2 12 13 -16 58 -37 74 -33 8 2 14 -4 13 -13 -1 -9 5 -16 12 -16 7
0 11 4 8 9 -4 5 0 8 7 7 8 -2 24 3 37 10 23 12 82 7 82 -8 0 -4 -6 -13 -12
-21 -11 -12 -10 -12 5 -1 9 7 17 22 17 32 0 15 7 18 34 15 27 -2 33 1 28 13
-4 13 -2 14 9 3 7 -6 19 -12 26 -12 22 0 3 26 -30 41 -18 8 -34 23 -36 34 -3
19 -2 19 15 3 18 -16 20 -15 42 7 12 12 22 28 22 34 0 7 6 11 12 10 29 -4 43
2 23 10 -18 7 -17 9 11 24 17 9 35 13 39 9 4 -4 4 4 0 17 -5 16 -4 21 4 17 20
-13 25 24 5 39 -15 12 -16 14 -3 15 8 0 20 -5 26 -11 8 -8 13 -7 18 2 6 8 4
10 -5 4 -9 -6 -12 -4 -8 6 5 12 0 14 -22 11 -18 -3 -29 1 -33 12 -5 13 -2 15
17 10 14 -3 27 1 35 10 8 9 21 16 30 16 13 -1 13 -3 -3 -15 -19 -15 -19 -15 3
-15 12 0 19 -4 16 -10 -3 -5 2 -10 11 -10 10 0 15 3 11 6 -11 12 17 30 39 26
16 -3 21 -9 17 -21 -4 -12 -1 -11 11 4 10 11 15 14 11 8 -4 -9 1 -12 17 -10
18 1 22 -2 20 -18 -2 -20 -2 -20 13 -1 8 11 18 17 21 13 4 -4 17 5 30 20 18
21 26 24 37 15 10 -9 17 -9 27 1 10 10 12 9 6 -3 -4 -8 -1 -7 7 3 10 12 17 14
22 8 3 -6 1 -11 -6 -11 -9 0 -9 -3 0 -14 7 -8 14 -24 16 -36 6 -29 15 -39 15
-16 0 10 6 16 13 13 6 -2 19 -1 28 4 21 11 42 -4 37 -27 -2 -12 -11 -18 -22
-16 -16 3 -17 2 -5 -11 8 -7 26 -20 39 -27 24 -13 24 -12 10 5 -8 10 -10 16
-3 12 6 -4 14 -3 18 2 4 7 15 7 32 0 25 -9 26 -9 12 8 -32 36 -32 47 -2 25 37
-27 43 -27 44 -4 0 9 3 12 5 6 3 -7 14 -9 26 -6 16 4 19 2 14 -9 -4 -8 0 -5 9
7 11 15 23 19 45 16 38 -5 41 -37 5 -46 -26 -7 -32 -20 -15 -31 6 -3 10 0 10
8 0 9 9 12 30 9 17 -2 30 0 30 5 0 6 12 8 26 5 15 -3 29 1 34 7 5 10 16 8 46
-5 21 -9 42 -16 47 -16 11 3 9 -13 -6 -41 l-14 -26 -32 34 -32 35 -37 -17
c-20 -8 -45 -16 -54 -17 -13 0 -16 -6 -12 -18 3 -12 0 -18 -10 -18 -9 0 -15
-3 -14 -7 1 -5 -4 -21 -10 -36 -12 -28 -32 -29 -32 -2 0 19 -79 94 -107 101
-31 8 -63 -21 -63 -57 0 -63 144 -150 202 -121 13 6 54 20 91 32 45 15 73 30
84 46 11 17 21 23 34 19 13 -5 19 -1 19 10 0 9 4 14 9 11 5 -3 11 0 14 8 4 10
0 12 -14 9 -25 -7 -24 1 6 33 19 20 25 23 25 10 0 -9 7 -16 15 -16 8 0 15 -4
15 -8 0 -5 12 -14 27 -21 27 -12 27 -13 8 -27 -18 -14 -18 -14 2 -14 31 0 36
-15 10 -27 -16 -7 -29 -8 -41 -1 -10 5 -20 7 -23 4 -4 -3 0 -6 7 -6 11 0 11
-2 -1 -12 -8 -7 -12 -12 -10 -10 3 1 10 -7 16 -19 10 -17 8 -25 -9 -44 -13
-15 -26 -21 -34 -16 -16 9 -62 2 -62 -9 0 -5 9 -6 19 -3 16 4 21 -2 27 -34 3
-21 11 -44 17 -51 7 -9 7 -16 -1 -24 -18 -18 -34 2 -28 35 5 25 4 27 -3 12 -5
-11 -10 -15 -10 -10 -1 12 -41 15 -41 3 0 -4 -5 -8 -11 -8 -6 0 -8 9 -4 21 5
15 4 19 -4 15 -6 -4 -11 -18 -11 -31 0 -22 3 -23 25 -15 18 7 28 5 40 -6 18
-19 20 -35 3 -32 -7 2 -12 -5 -10 -14 2 -11 -3 -18 -13 -18 -21 0 -19 -9 7
-31 25 -22 24 -22 49 -9 24 13 62 -16 40 -30 -9 -5 -3 -11 18 -18 22 -8 31
-18 32 -34 1 -18 2 -19 6 -5 4 14 12 18 29 14 13 -2 25 0 27 6 2 7 9 7 21 0
12 -7 15 -13 8 -17 -8 -5 -6 -13 6 -26 19 -23 48 -26 56 -7 3 6 4 1 3 -13 -1
-17 -8 -25 -20 -24 -9 1 -17 -2 -17 -8 0 -5 -4 -6 -10 -3 -5 3 -10 1 -10 -4 0
-6 5 -11 11 -11 6 0 9 -6 6 -14 -6 -15 -1 -16 60 -18 22 -1 34 -7 38 -19 6
-18 43 -19 1090 -19 600 0 1086 4 1089 9 3 4 18 6 32 3 20 -4 25 -2 19 8 -4 6
-19 10 -34 8 -21 -3 -27 0 -28 15 -3 27 -22 47 -48 47 -23 0 -47 -20 -44 -36
4 -21 -2 -24 -17 -10 -8 9 -12 20 -9 26 3 5 1 10 -6 10 -8 0 -9 4 -1 13 6 7 9
26 6 41 -4 24 -2 27 12 22 9 -3 22 -2 29 4 9 8 15 8 20 0 3 -6 11 -7 17 -4 6
4 8 -1 3 -16 -6 -19 -4 -21 15 -15 15 5 20 4 16 -4 -4 -6 0 -11 11 -12 10 0
26 -2 36 -4 16 -3 21 6 18 32 -1 7 7 9 19 6 28 -7 26 15 -2 27 -23 9 -11 14
23 11 9 -1 22 5 29 14 7 8 25 15 41 15 16 0 29 5 29 11 0 5 5 7 10 4 6 -4 7
-11 4 -17 -4 -7 -2 -8 4 -4 7 4 12 3 12 -3 0 -6 7 -8 15 -5 8 4 15 13 15 22 0
8 -3 13 -6 9 -12 -11 -34 21 -27 39 5 14 3 16 -11 11 -9 -4 -15 -3 -12 2 3 5
-5 11 -19 13 -21 4 -25 1 -25 -18 0 -13 -5 -24 -11 -24 -6 0 -9 9 -6 20 7 28
-17 26 -31 -2 -9 -19 -11 -20 -11 -5 -1 15 -9 17 -45 15 -24 -2 -42 -6 -40 -9
2 -4 -3 -10 -11 -13 -14 -5 -14 -10 -1 -40 8 -19 12 -37 8 -40 -3 -3 4 -6 15
-6 11 0 20 -6 20 -14 0 -11 -5 -12 -24 -3 -12 5 -23 17 -23 26 0 14 -2 14 -10
1 -5 -8 -10 -10 -11 -5 -3 24 -5 31 -12 52 -4 11 -14 24 -22 27 -8 3 -15 14
-15 25 0 11 -6 22 -12 25 -7 4 1 4 18 2 25 -4 34 0 44 19 7 13 10 28 6 33 -3
5 1 13 10 16 8 3 13 10 9 15 -3 5 -1 12 3 15 5 3 7 17 4 31 -4 24 3 30 36 26
6 -1 12 5 12 14 0 9 -4 14 -9 11 -5 -3 -11 1 -14 9 -4 9 -1 12 7 9 7 -3 16 2
19 10 4 9 17 16 29 16 19 0 20 2 8 10 -13 8 -13 10 1 10 9 0 22 11 29 25 8 14
20 23 27 21 7 -3 13 1 13 8 0 9 -7 12 -21 9 -21 -6 -21 1 -3 69 6 22 -12 32
-33 18 -17 -10 -16 -10 2 -8 15 2 19 -2 17 -17 -5 -26 -13 -34 -19 -17 -3 6
-10 12 -16 12 -5 0 -8 -3 -4 -6 3 -4 0 -13 -8 -20 -17 -18 -26 -18 -19 0 3 8
-3 16 -15 19 -12 3 -21 12 -21 21 0 9 -5 16 -12 16 -6 0 -9 -3 -5 -6 8 -8 -18
-34 -33 -34 -7 0 -5 -7 5 -16 9 -9 13 -19 9 -23 -4 -3 -9 0 -11 7 -4 9 -11 6
-24 -9 -10 -12 -19 -17 -19 -12 0 7 -18 9 -45 5 -31 -3 -45 -1 -45 7 0 7 4 10
8 7 5 -3 6 8 4 25 -4 24 2 36 30 63 l34 33 -29 16 c-16 10 -38 17 -50 17 -20
0 -20 0 -1 15 18 14 18 15 -5 12 -13 -1 -26 4 -29 12 -3 8 0 11 7 7 6 -4 11
-3 11 1 0 14 -40 34 -53 27 -9 -5 -9 -3 1 7 6 7 12 18 12 24 0 5 -4 4 -9 -4
-5 -7 -14 -10 -21 -6 -9 6 -9 10 1 16 11 8 11 11 -3 20 -24 14 -22 26 4 35
l23 7 -25 10 c-34 14 -44 14 -52 2 -4 -5 -8 2 -8 16 0 14 -3 29 -7 33 -5 4 -8
11 -9 14 0 4 -4 15 -9 25 -4 10 -5 20 -2 23 3 4 -3 15 -14 27 -23 25 -23 28
-4 53 13 16 16 17 25 4 8 -13 10 -13 10 3 0 9 -7 17 -15 17 -8 0 -15 4 -15 9
0 6 9 8 19 6 24 -4 22 20 -4 39 -11 8 -16 19 -12 30 4 9 2 16 -3 16 -6 0 -10
7 -10 15 0 9 -11 21 -25 27 -25 11 -35 38 -15 38 7 0 7 7 -1 21 -9 17 -8 23 2
30 11 7 12 12 2 28 -8 12 -9 22 -3 26 5 3 8 16 6 28 -3 12 -5 28 -5 35 -1 6
-10 12 -22 12 -11 0 -17 5 -14 10 3 6 -4 14 -17 19 -13 4 -22 11 -20 15 7 20
1 26 -18 16 -11 -6 -25 -8 -31 -4 -6 4 -15 0 -20 -7 -7 -11 -9 -10 -9 4 0 10
7 17 18 17 9 0 24 5 32 11 12 9 11 10 -7 6 -12 -3 -22 -2 -21 2 3 16 -23 60
-44 75 l-22 16 24 17 c14 10 28 17 33 15 4 -1 7 4 7 12 0 7 -12 16 -26 19 -21
4 -25 1 -21 -13 3 -13 0 -16 -14 -13 -11 3 -19 9 -19 14 0 11 -34 12 -44 2 -7
-7 -26 -10 -116 -16 -37 -2 -72 11 -64 25 3 4 -2 5 -10 2 -21 -8 -39 5 -28 19
12 15 8 63 -6 60 -5 -1 -9 5 -8 15 0 9 -6 17 -14 17 -8 0 -18 7 -22 15 -4 8
-7 11 -7 5z m13 -46 c-8 -14 -24 -10 -24 6 0 9 6 12 15 9 8 -4 12 -10 9 -15z
m-1142 -85 c-3 -15 -8 -22 -14 -16 -9 9 -1 42 12 42 4 0 5 -12 2 -26z m-422
-74 c0 -5 -4 -10 -10 -10 -5 0 -10 5 -10 10 0 6 5 10 10 10 6 0 10 -4 10 -10z
m1688 -25 c-3 -3 -9 2 -12 12 -6 14 -5 15 5 6 7 -7 10 -15 7 -18z m-1411 -47
c-3 -7 -5 -2 -5 12 0 14 2 19 5 13 2 -7 2 -19 0 -25z m1650 5 c2 -6 -5 -14
-17 -18 -26 -8 -33 -3 -24 19 7 19 35 18 41 -1z m-1667 -9 c0 -8 -5 -12 -10
-9 -6 4 -8 11 -5 16 9 14 15 11 15 -7z m-640 -4 c0 -5 -2 -10 -4 -10 -3 0 -8
5 -11 10 -3 6 -1 10 4 10 6 0 11 -4 11 -10z m280 -45 c0 -9 -6 -12 -15 -9 -8
4 -15 10 -15 15 0 5 7 9 15 9 8 0 15 -7 15 -15z m-303 -11 c-3 -3 -12 -4 -19
-1 -8 3 -5 6 6 6 11 1 17 -2 13 -5z m2383 -4 c-8 -5 -19 -10 -25 -10 -5 0 -3
5 5 10 8 5 20 10 25 10 6 0 3 -5 -5 -10z m-40 -15 c0 -9 -6 -12 -15 -9 -8 4
-12 10 -9 15 8 14 24 10 24 -6z m-2460 -15 c-8 -5 -19 -10 -25 -10 -5 0 -3 5
5 10 8 5 20 10 25 10 6 0 3 -5 -5 -10z m446 -5 c17 -16 11 -35 -10 -35 -22 0
-37 25 -24 38 15 15 16 15 34 -3z m-348 -33 c22 6 39 -17 22 -27 -6 -4 -10 -2
-10 2 0 5 -11 9 -25 9 -14 0 -25 -4 -25 -8 0 -4 7 -8 15 -8 8 0 15 -4 15 -9 0
-6 21 -13 46 -17 l47 -7 -23 -17 c-18 -13 -20 -19 -9 -25 7 -5 14 -4 17 3 2 7
8 12 13 12 4 0 6 -7 3 -15 -4 -9 0 -15 7 -15 9 0 7 -5 -5 -11 -14 -9 -20 -8
-26 1 -5 8 -18 10 -35 6 -20 -5 -26 -3 -22 6 2 7 10 12 16 11 6 -2 11 4 11 12
0 8 -9 15 -19 15 -21 0 -33 -22 -25 -44 11 -29 -27 -25 -57 7 -25 26 -31 28
-27 12 2 -11 8 -20 15 -20 6 0 15 -4 20 -9 5 -5 -1 -7 -14 -3 -18 4 -23 1 -23
-15 0 -10 -3 -17 -7 -15 -5 3 -8 25 -8 49 1 38 3 43 22 41 11 -1 27 4 33 12
11 13 8 14 -19 11 -21 -2 -31 1 -31 10 0 8 7 14 15 14 8 0 15 -5 15 -12 0 -9
3 -9 12 0 10 10 10 17 0 33 -12 19 -11 20 7 14 14 -4 21 -2 21 7 0 10 2 10 9
-1 5 -8 18 -12 29 -9z m-98 -12 c0 -5 -4 -10 -10 -10 -5 0 -10 5 -10 10 0 6 5
10 10 10 6 0 10 -4 10 -10z m-70 -15 c0 -17 -2 -18 -25 -9 -13 5 -14 8 -3 15
19 13 28 11 28 -6z m23 0 c-3 -9 -8 -14 -10 -11 -3 3 -2 9 2 15 9 16 15 13 8
-4z m484 -1 c-3 -3 -12 -4 -19 -1 -8 3 -5 6 6 6 11 1 17 -2 13 -5z m-40 -26
c-3 -8 -6 -5 -6 6 -1 11 2 17 5 13 3 -3 4 -12 1 -19z m-417 -14 c0 -3 -6 -12
-14 -19 -17 -17 -30 -7 -15 12 12 13 29 18 29 7z m517 -26 c-3 -7 -5 -2 -5 12
0 14 2 19 5 13 2 -7 2 -19 0 -25z m-3082 -12 c12 -12 12 -16 0 -26 -12 -10
-15 -9 -15 8 0 11 -6 23 -12 25 -10 4 -10 6 0 6 7 1 20 -5 27 -13z m3012 -13
c-3 -2 -16 -1 -29 3 l-23 8 25 6 c23 6 39 -4 27 -17z m103 16 c0 -6 7 -9 15
-5 8 3 15 1 15 -4 0 -6 -11 -10 -25 -10 -16 0 -25 6 -25 15 0 8 5 15 10 15 6
0 10 -5 10 -11z m-40 -51 c0 -6 13 -7 31 -3 22 5 29 4 25 -4 -4 -6 -15 -11
-24 -11 -15 0 -15 -2 -2 -10 8 -5 10 -10 4 -10 -7 0 -15 -7 -18 -16 -5 -13 -2
-15 11 -9 10 4 26 7 36 7 9 0 15 3 12 8 -3 6 1 7 10 4 12 -5 13 -9 4 -20 -8
-9 -8 -14 -1 -14 6 0 14 5 17 10 3 6 11 10 18 10 6 0 1 -8 -12 -17 -23 -16
-23 -17 -5 -24 21 -8 24 -7 -36 -13 -8 0 -15 -8 -16 -16 0 -8 -4 -26 -8 -39
-6 -18 -10 -21 -17 -10 -6 9 -9 10 -9 2 0 -7 7 -16 17 -21 13 -8 11 -9 -10 -9
-23 0 -27 4 -27 28 0 20 5 29 16 29 12 0 15 7 12 30 -3 17 0 30 6 31 6 0 0 5
-13 10 -16 6 -28 6 -37 -2 -11 -9 -14 -7 -14 10 0 14 6 21 19 21 14 0 18 5 14
20 -4 15 -11 19 -32 14 -24 -5 -24 -4 -9 9 10 8 15 17 11 21 -4 4 0 4 10 0 9
-3 17 -11 17 -16z m-260 2 c0 -5 -5 -10 -11 -10 -5 0 -7 5 -4 10 3 6 8 10 11
10 2 0 4 -4 4 -10z m-1573 -22 c-3 -8 -6 -5 -6 6 -1 11 2 17 5 13 3 -3 4 -12
1 -19z m772 -57 c-15 -5 -22 6 -14 19 6 9 10 9 16 -1 5 -8 4 -15 -2 -18z
m-1435 12 c-5 -5 -12 -12 -16 -18 -4 -6 -8 -2 -8 8 0 9 7 17 17 17 9 0 12 -3
7 -7z m546 -17 c0 -3 -4 -8 -10 -11 -5 -3 -10 -1 -10 4 0 6 5 11 10 11 6 0 10
-2 10 -4z m1827 -2 c-3 -3 -12 -4 -19 -1 -8 3 -5 6 6 6 11 1 17 -2 13 -5z
m-26 -27 c-5 -5 -17 -5 -28 2 -16 9 -15 10 9 9 16 -2 24 -6 19 -11z m-1196
-17 c3 -5 2 -10 -4 -10 -5 0 -13 5 -16 10 -3 6 -2 10 4 10 5 0 13 -4 16 -10z
m1195 -25 c-7 -8 -17 -15 -23 -15 -6 0 -2 8 9 19 22 21 33 19 14 -4z m-3602
-10 c-3 -3 -9 2 -12 12 -6 14 -5 15 5 6 7 -7 10 -15 7 -18z m3658 -9 c-1 -18
-4 -22 -14 -14 -9 8 -11 7 -6 -6 3 -9 17 -16 30 -16 21 0 23 -2 13 -27 -7 -19
-6 -29 2 -37 9 -8 10 -8 5 1 -3 6 -1 15 5 19 7 4 9 3 5 -4 -3 -6 4 -20 16 -32
16 -14 24 -17 27 -8 13 38 61 43 61 6 0 -15 -5 -18 -21 -13 -15 5 -22 2 -26
-14 -6 -24 -23 -29 -23 -7 0 8 -4 18 -10 21 -11 7 -42 -8 -41 -18 1 -4 -1 -7
-4 -7 -3 0 -14 0 -26 0 -11 0 -18 4 -15 9 7 10 -19 23 -28 14 -10 -10 -7 -25
3 -18 18 11 34 -31 19 -51 -5 -7 -2 -17 7 -24 19 -16 19 -30 0 -30 -8 0 -19
-9 -25 -20 -6 -12 -21 -20 -35 -20 -14 0 -25 -4 -25 -10 0 -5 -4 -10 -10 -10
-5 0 -10 14 -10 31 0 21 -4 28 -12 23 -7 -4 -5 2 5 13 25 29 22 43 -9 34 -20
-5 -28 -14 -30 -34 -1 -15 -9 -36 -18 -48 -10 -15 -12 -28 -6 -39 5 -9 5 -22
-1 -31 -7 -12 -9 -12 -10 1 -1 8 -1 18 0 22 0 4 -5 5 -12 3 -6 -3 -24 10 -39
29 -23 28 -25 35 -12 40 8 3 12 10 9 16 -3 5 3 10 14 10 27 0 35 15 9 17 -25
2 -58 36 -58 60 0 15 2 16 10 3 5 -8 10 -10 10 -4 0 6 12 11 28 10 17 -1 31 6
39 19 7 11 12 14 13 7 0 -7 6 -10 13 -7 6 4 3 -1 -8 -11 -17 -14 -17 -16 -2
-11 11 4 17 1 17 -9 0 -12 4 -13 23 -2 19 10 20 13 5 16 -18 3 -26 22 -10 22
12 0 11 32 -1 48 -5 6 -7 12 -3 12 3 0 8 0 11 0 3 0 17 13 32 28 19 19 37 27
55 26 19 -2 27 3 31 18 3 11 10 17 16 13 6 -3 11 -1 11 4 0 6 2 11 4 11 2 0 3
-11 2 -24z m-1056 0 c0 -23 -16 -27 -17 -5 -1 10 2 19 8 19 5 0 9 -6 9 -14z
m784 0 c7 3 18 -7 24 -21 7 -14 19 -28 27 -31 21 -8 19 -21 -4 -27 -18 -4 -37
16 -33 35 1 4 -7 12 -18 18 -18 10 -19 8 -11 -13 6 -16 6 -28 -2 -36 -8 -8 -8
-11 0 -11 6 0 14 -11 17 -25 4 -17 11 -23 24 -19 16 5 16 5 0 -5 -12 -8 -31
-8 -67 0 -59 12 -65 19 -16 17 19 -1 38 1 41 5 10 10 -7 29 -22 23 -11 -4 -13
0 -8 18 4 17 0 27 -13 35 -16 9 -16 10 -1 11 9 0 20 9 23 21 5 14 10 18 17 11
6 -6 16 -8 22 -6z m141 4 c-3 -5 -10 -10 -16 -10 -5 0 -9 5 -9 10 0 6 7 10 16
10 8 0 12 -4 9 -10z m-2413 -24 c10 5 10 4 2 -5 -12 -13 -44 -5 -44 11 0 6 6
5 15 -2 8 -6 20 -8 27 -4z m-286 -5 c8 7 18 8 22 4 4 -4 1 -10 -5 -12 -7 -3
-13 -11 -13 -18 0 -16 -32 -13 -38 3 -5 16 -29 15 -35 0 -2 -7 -8 -9 -13 -5
-12 11 17 28 39 23 9 -2 17 1 18 7 0 8 2 7 6 -1 4 -10 8 -10 19 -1z m504 -42
c0 -6 -4 -7 -10 -4 -5 3 -10 11 -10 16 0 6 5 7 10 4 6 -3 10 -11 10 -16z
m2470 12 c0 -5 -7 -11 -15 -15 -15 -5 -20 5 -8 17 9 10 23 9 23 -2z m-2540
-11 c0 -5 -5 -10 -11 -10 -5 0 -7 -5 -3 -12 4 -7 3 -8 -4 -4 -6 4 -9 13 -5 21
6 17 23 20 23 5z m2060 -10 c0 -5 -5 -10 -11 -10 -5 0 -7 5 -4 10 3 6 8 10 11
10 2 0 4 -4 4 -10z m-2456 -7 c4 -5 13 -8 19 -8 7 0 13 -10 13 -23 1 -24 -11
-38 -20 -23 -4 5 -1 13 5 17 8 4 -1 14 -22 25 -19 10 -27 18 -18 19 9 0 19 -3
23 -7z m636 -7 c0 -2 -7 -7 -16 -10 -8 -3 -12 -2 -9 4 6 10 25 14 25 6z m1750
-16 c0 -5 -2 -10 -4 -10 -3 0 -8 5 -11 10 -3 6 -1 10 4 10 6 0 11 -4 11 -10z
m7 -31 c-9 -6 -21 -8 -26 -4 -5 3 -12 1 -16 -5 -3 -5 -11 -10 -17 -10 -28 0
15 27 44 28 27 1 30 -1 15 -9z m50 -15 c-3 -3 -12 -4 -19 -1 -8 3 -5 6 6 6 11
1 17 -2 13 -5z m-54 -28 c20 -16 22 -36 3 -36 -7 0 -19 -7 -26 -15 -7 -9 -21
-13 -31 -10 -15 5 -19 1 -19 -15 0 -14 -4 -19 -12 -15 -7 4 -5 0 6 -9 10 -8
15 -20 11 -26 -5 -8 -11 -8 -19 -1 -7 6 -16 8 -19 4 -4 -3 -7 3 -7 15 0 11 5
24 11 27 6 4 8 13 5 21 -3 8 0 14 7 14 8 0 6 4 -3 10 -9 6 -10 10 -3 10 6 0
19 7 27 16 9 8 16 11 16 5 0 -6 5 -11 11 -11 6 0 9 7 5 15 -7 18 13 19 37 1z
m510 -34 c-6 -14 -4 -15 9 -5 18 16 28 7 28 -24 0 -18 -5 -23 -25 -23 -19 0
-23 4 -18 18 5 14 3 15 -8 5 -7 -7 -21 -13 -32 -13 -17 0 -17 2 -2 23 8 12 21
22 28 22 6 1 11 7 9 14 -1 7 2 10 7 6 6 -3 7 -13 4 -23z m-1108 -3 c11 -16 1
-19 -13 -3 -7 8 -8 14 -3 14 5 0 13 -5 16 -11z m1017 -31 c-7 -7 -12 -8 -12
-2 0 14 12 26 19 19 2 -3 -1 -11 -7 -17z m-822 -33 c0 -9 -9 -15 -22 -14 -17
1 -19 2 -5 6 9 2 17 9 17 14 0 5 2 9 5 9 3 0 5 -7 5 -15z m83 -7 c16 -16 16
-18 -2 -28 -25 -13 -51 -13 -51 1 0 5 -5 7 -12 3 -7 -4 -8 -3 -4 5 4 6 13 8
19 4 22 -14 35 -11 30 7 -3 10 -11 16 -18 14 -7 -3 -16 -1 -19 5 -11 17 39 7
57 -11z m704 0 c-3 -8 -6 -5 -6 6 -1 11 2 17 5 13 3 -3 4 -12 1 -19z m-277 -7
c0 -3 -7 -15 -15 -25 -8 -10 -12 -22 -10 -26 2 -4 -1 -7 -8 -7 -7 0 -13 14
-14 31 -2 27 1 31 22 32 14 1 25 -1 25 -5z m-226 -27 c8 -20 -1 -34 -20 -34
-15 0 -17 9 -8 34 8 20 20 20 28 0z m437 -37 c-7 -17 -7 -27 -1 -27 6 0 10 8
10 18 0 14 2 14 9 3 5 -8 7 -21 4 -29 -3 -8 0 -18 8 -24 11 -8 10 -9 -4 -4
-10 3 -26 6 -34 6 -12 0 -14 7 -9 33 4 17 7 41 7 51 0 12 3 16 10 9 6 -6 6
-19 0 -36z m-766 -16 c-6 -5 -25 10 -25 20 0 5 6 4 14 -3 8 -7 12 -15 11 -17z
m630 -1 c3 -6 -1 -7 -9 -4 -18 7 -21 14 -7 14 6 0 13 -4 16 -10z m81 -28 c-9
-8 -34 12 -29 24 4 12 8 11 18 -3 8 -10 12 -19 11 -21z m-240 10 c1 -7 0 -8
-3 -2 -2 5 -9 8 -14 4 -5 -3 -9 0 -9 6 0 15 23 7 26 -8z m2807 -26 c4 -10 1
-13 -8 -9 -8 3 -12 9 -9 14 7 12 11 11 17 -5z m191 -112 c5 -14 4 -15 -9 -4
-17 14 -19 20 -6 20 5 0 12 -7 15 -16z m-3939 -14 c3 -5 1 -10 -4 -10 -6 0
-11 5 -11 10 0 6 2 10 4 10 3 0 8 -4 11 -10z m-41 -35 c-4 -8 -11 -12 -16 -9
-6 4 -5 10 3 15 19 12 19 11 13 -6z m1603 -71 c-3 -3 -12 -4 -19 -1 -8 3 -5 6
6 6 11 1 17 -2 13 -5z m40 -70 c0 -9 -7 -8 -24 3 -12 8 -23 19 -23 23 0 5 11
3 23 -3 13 -6 24 -16 24 -23z m-1928 -96 c-7 -12 -12 -28 -11 -34 1 -7 -10
-14 -26 -16 -23 -3 -28 0 -30 19 -1 13 3 23 8 23 6 0 10 7 10 16 0 8 4 12 10
9 5 -3 18 -2 27 4 24 13 27 7 12 -21z m-541 -22 c-7 -8 -15 -12 -17 -11 -5 6
10 25 20 25 5 0 4 -6 -3 -14z m309 -132 c-3 -4 -2 -15 4 -25 6 -11 6 -19 0
-19 -9 0 -21 23 -21 41 0 5 5 9 12 9 6 0 8 -3 5 -6z m153 -34 c0 -5 -6 -10
-14 -10 -17 0 -29 -27 -16 -35 6 -4 16 -3 23 1 9 6 9 4 -1 -8 -11 -14 -16 -12
-47 15 -39 34 -44 42 -17 28 12 -6 25 -5 42 5 31 16 30 16 30 4z m-716 -55 c3
-8 1 -15 -3 -15 -5 0 -11 7 -15 15 -3 8 -1 15 3 15 5 0 11 -7 15 -15z m2866
-45 c18 -11 13 -16 -23 -25 -27 -7 -28 -7 -15 14 14 24 17 24 38 11z m2135
-12 c5 4 5 1 1 -5 -10 -19 -36 -16 -36 3 0 13 3 14 13 5 8 -6 18 -7 22 -3z"/>
<path d="M4170 990 c0 -5 5 -10 10 -10 6 0 10 5 10 10 0 6 -4 10 -10 10 -5 0
-10 -4 -10 -10z"/>
<path d="M13945 1910 c-4 -6 -10 -8 -14 -6 -4 3 -8 -1 -8 -9 0 -8 6 -15 14
-15 7 0 13 -4 13 -10 0 -5 7 -7 15 -4 12 5 13 9 4 20 -7 8 -8 18 -4 22 4 4 10
1 12 -6 3 -7 14 -17 26 -23 21 -11 20 -10 -2 15 -26 27 -45 33 -56 16z"/>
<path d="M14329 1878 c-10 -18 -9 -20 6 -15 9 4 19 7 21 7 2 0 4 7 4 15 0 22
-18 18 -31 -7z"/>
<path d="M7176 1861 c-31 -35 4 -95 76 -132 53 -27 83 -26 176 5 91 31 126 58
116 90 -25 84 -105 70 -166 -28 l-34 -55 -13 34 c-15 42 -84 105 -114 105 -13
0 -32 -9 -41 -19z"/>
<path d="M14215 1869 c-4 -6 -5 -12 -2 -15 2 -3 7 2 10 11 7 17 1 20 -8 4z"/>
<path d="M17624 1855 c4 -14 3 -25 -1 -26 -45 -6 -70 -5 -83 2 -10 5 -11 8 -2
9 14 0 17 20 2 20 -21 0 -23 -33 -4 -47 16 -12 17 -15 4 -23 -8 -6 -20 -8 -26
-6 -7 3 -10 -6 -8 -20 1 -13 -2 -24 -7 -24 -5 0 -9 -7 -9 -15 0 -8 -5 -15 -11
-15 -5 0 -8 4 -5 8 3 5 -1 9 -9 9 -23 0 -24 -43 -1 -63 19 -17 19 -18 1 -24
-13 -4 -15 -9 -7 -14 7 -4 12 -14 12 -23 0 -12 -3 -13 -15 -3 -8 6 -14 15 -13
18 0 4 0 18 -1 31 l-1 25 -20 -22 c-17 -18 -19 -26 -10 -42 6 -11 17 -20 24
-20 8 0 17 -7 20 -16 9 -24 7 -28 -8 -15 -11 9 -15 5 -20 -23 -6 -33 -26 -60
-26 -37 0 6 -7 11 -16 11 -10 0 -14 -6 -10 -17 3 -10 8 -30 11 -45 7 -26 9
-27 56 -21 l49 6 0 -53 c0 -45 2 -51 17 -46 10 4 14 4 10 0 -4 -4 -2 -13 5
-21 9 -11 8 -13 -3 -11 -8 2 -14 -5 -14 -17 0 -11 6 -19 13 -17 6 1 12 -2 12
-8 0 -5 7 -10 15 -10 8 0 15 -5 15 -11 0 -5 5 -7 10 -4 16 10 11 -7 -5 -19
-18 -13 -30 -66 -16 -66 5 0 12 6 14 13 4 10 6 9 6 0 1 -7 8 -13 16 -13 22 0
18 -14 -7 -25 -13 -6 -29 -25 -37 -42 -8 -18 -20 -33 -27 -33 -6 0 -14 -7 -18
-15 -3 -8 -2 -14 2 -14 24 4 39 -5 54 -31 10 -17 13 -30 6 -30 -5 0 0 -9 13
-20 14 -11 18 -19 11 -20 -7 0 -10 -5 -6 -11 5 -8 9 -8 14 1 5 8 18 10 36 6
22 -6 25 -9 13 -17 -12 -8 -12 -10 1 -18 8 -5 18 -7 23 -4 4 3 14 -3 22 -13
13 -18 14 -18 20 7 6 23 11 26 56 25 27 0 49 -4 49 -8 0 -16 51 -3 76 19 25
21 26 25 16 65 -6 23 -9 45 -6 50 3 4 -2 8 -10 8 -10 0 -16 9 -16 25 0 14 -6
25 -12 25 -9 0 -9 3 1 9 8 5 12 18 8 31 -4 16 -1 24 14 27 10 3 19 10 19 15 0
6 -7 8 -14 5 -10 -4 -13 -1 -9 8 4 11 10 12 25 4 16 -9 20 -7 25 10 3 12 9 21
14 21 12 0 11 -17 -1 -25 -17 -10 8 -35 27 -28 10 4 14 2 9 -5 -3 -6 -2 -14 4
-17 6 -4 10 -3 9 2 -4 21 3 29 24 30 19 2 20 1 5 -8 -21 -11 -24 -39 -5 -39 9
0 8 -3 -2 -9 -11 -7 -10 -13 3 -34 9 -13 15 -30 14 -37 -2 -7 3 -15 10 -17 9
-4 12 62 12 306 0 271 -2 312 -15 317 -10 4 -13 13 -10 25 5 13 1 19 -10 19
-9 0 -13 5 -10 10 3 6 1 10 -4 10 -6 0 -11 -7 -11 -15 0 -12 -5 -13 -17 -7
-10 5 -25 7 -33 4 -26 -8 -80 -71 -74 -86 3 -8 1 -17 -5 -21 -7 -3 -8 0 -5 9
3 9 1 16 -5 16 -6 0 -11 -8 -11 -17 0 -14 -2 -15 -9 -4 -7 10 -13 11 -31 1
-15 -8 -20 -8 -16 -1 8 12 -16 41 -33 41 -6 0 -11 4 -11 10 0 5 -7 7 -15 4
-15 -6 -22 11 -7 19 8 4 -9 0 -35 -9 -14 -5 -15 -4 -4 4 8 6 12 19 8 31 -3 14
0 21 9 21 13 0 15 5 13 28 0 4 -8 5 -17 4 -14 -3 -14 -2 -1 14 8 11 9 15 2 10
-8 -4 -13 -2 -13 7 0 8 -7 20 -15 27 -8 7 -13 16 -10 20 3 5 1 12 -5 15 -8 5
-8 11 0 20 8 9 6 14 -6 19 -25 9 -27 8 -20 -19z m356 -205 c0 -5 -4 -10 -10
-10 -5 0 -10 5 -10 10 0 6 5 10 10 10 6 0 10 -4 10 -10z m-255 -31 c4 -5 -5
-9 -19 -9 -14 0 -26 4 -26 8 0 11 39 12 45 1z m139 -110 c-3 -5 -10 -7 -15 -3
-5 3 -7 10 -3 15 3 5 10 7 15 3 5 -3 7 -10 3 -15z m-354 -18 c0 -4 -6 -13 -12
-20 -11 -10 -9 -11 6 -5 13 5 17 4 12 -4 -3 -6 -2 -13 4 -17 5 -3 10 -10 10
-15 0 -13 -54 39 -56 53 -1 7 7 14 17 14 11 1 19 -2 19 -6z m105 -541 c3 -5
-1 -10 -9 -10 -9 0 -16 5 -16 10 0 6 4 10 9 10 6 0 13 -4 16 -10z"/>
<path d="M15110 1861 c0 -6 -9 -11 -19 -11 -14 0 -18 -5 -14 -20 3 -12 0 -20
-7 -20 -7 0 -10 -8 -7 -19 4 -16 -1 -18 -44 -17 -51 1 -57 4 -37 24 9 9 9 12
0 12 -7 0 -12 7 -12 15 0 8 -9 19 -20 25 -16 8 -20 8 -20 -3 0 -8 7 -20 15
-27 8 -7 15 -23 15 -36 0 -13 9 -28 20 -34 11 -6 18 -15 15 -20 -3 -4 1 -11 7
-14 7 -4 3 -4 -10 -2 -19 4 -22 1 -16 -16 4 -14 2 -19 -7 -16 -14 5 -21 48 -7
48 5 0 4 9 -2 21 -11 19 -12 20 -25 3 -12 -17 -13 -16 -19 4 -7 21 -9 21 -32
6 -13 -9 -24 -25 -24 -35 0 -23 -16 -25 -24 -3 -4 9 -9 14 -13 11 -3 -4 -12
-2 -20 4 -9 9 -13 8 -13 0 0 -6 -10 -16 -22 -21 -20 -8 -20 -9 -4 -9 19 -1 19
-1 0 -22 -14 -16 -16 -23 -6 -26 6 -3 10 -9 7 -13 -3 -5 8 -19 24 -31 25 -18
28 -25 20 -45 -8 -23 -5 -28 15 -25 5 1 6 -5 3 -14 -4 -8 -2 -15 2 -15 5 0 11
7 15 15 3 8 13 15 21 15 9 0 13 -4 10 -10 -3 -6 1 -7 9 -4 9 3 13 10 10 15 -9
15 24 10 40 -7 9 -8 20 -12 26 -9 5 3 10 1 10 -4 0 -6 7 -11 16 -11 8 0 12 5
9 10 -10 17 5 52 20 46 9 -3 12 0 9 8 -4 10 5 13 31 13 32 -1 36 -4 32 -24 -3
-15 1 -23 9 -23 20 0 17 -17 -3 -29 -14 -8 -15 -10 -3 -11 13 0 13 -1 0 -10
-13 -8 -12 -10 3 -10 9 0 17 5 17 11 0 5 5 7 10 4 15 -9 12 -25 -4 -25 -10 0
-12 -7 -9 -21 6 -20 7 -20 18 -5 7 9 17 16 24 16 14 0 14 17 0 22 -7 2 -12 18
-13 35 0 17 -4 29 -7 27 -9 -5 -20 26 -14 36 3 5 12 7 20 3 9 -3 15 1 15 11 0
9 -6 16 -12 16 -8 0 -9 3 -3 8 16 11 12 48 -7 69 -12 13 -17 32 -14 59 2 21
-1 45 -7 52 -6 8 -6 12 2 12 7 0 9 5 5 11 -3 6 -1 15 6 19 9 5 9 9 1 14 -6 4
-11 2 -11 -3z"/>
<path d="M5426 1843 c-9 -10 -7 -43 3 -43 11 0 21 39 11 45 -4 2 -10 2 -14 -2z"/>
<path d="M15285 1840 c-3 -5 -1 -10 4 -10 6 0 11 5 11 10 0 6 -2 10 -4 10 -3
0 -8 -4 -11 -10z"/>
<path d="M13980 1832 c0 -5 7 -9 15 -9 8 0 15 4 15 9 0 4 -7 8 -15 8 -8 0 -15
-4 -15 -8z"/>
<path d="M14230 1833 c1 -18 18 -35 24 -24 4 6 4 16 1 21 -7 12 -25 13 -25 3z"/>
<path d="M13788 1810 c-9 -10 -14 -21 -10 -24 3 -3 0 -6 -6 -6 -7 0 -12 -4
-12 -9 0 -12 43 -1 52 13 10 14 10 46 1 45 -5 0 -15 -9 -25 -19z"/>
<path d="M13874 1816 c11 -9 24 -16 30 -16 12 0 7 5 -24 19 -24 11 -24 11 -6
-3z"/>
<path d="M4269 1798 c-1 -7 -1 -17 0 -22 1 -4 -3 -14 -10 -22 -6 -7 -8 -18 -4
-24 9 -15 45 32 45 59 0 22 -29 30 -31 9z"/>
<path d="M4700 1801 c0 -5 7 -11 14 -14 10 -4 13 -1 9 9 -6 15 -23 19 -23 5z"/>
<path d="M15283 1803 c-18 -7 -16 -20 2 -20 8 0 15 6 15 14 0 7 -1 13 -2 12
-2 0 -9 -3 -15 -6z"/>
<path d="M3913 1780 c2 -14 8 -23 13 -21 10 4 7 22 -7 36 -6 6 -8 1 -6 -15z"/>
<path d="M4630 1790 c0 -5 5 -10 10 -10 6 0 10 5 10 10 0 6 -4 10 -10 10 -5 0
-10 -4 -10 -10z"/>
<path d="M13865 1790 c3 -5 8 -10 11 -10 2 0 4 5 4 10 0 6 -5 10 -11 10 -5 0
-7 -4 -4 -10z"/>
<path d="M15312 1778 c-2 -10 -9 -15 -16 -11 -6 4 -4 -1 4 -11 8 -11 16 -14
18 -7 2 6 10 11 18 11 8 0 14 8 14 18 0 24 -31 24 -38 0z"/>
<path d="M13886 1774 c-5 -14 -9 -14 -23 -3 -15 13 -16 10 -9 -30 6 -37 4 -42
-9 -38 -8 4 -15 1 -15 -6 0 -7 -5 -18 -12 -25 -16 -16 -18 -52 -2 -52 7 0 21
17 31 39 10 21 29 43 43 49 14 6 18 10 10 9 -9 -1 -16 3 -17 8 0 6 4 9 11 7 6
-2 8 0 4 3 -4 4 -3 16 2 26 6 10 6 20 1 23 -5 3 -12 -1 -15 -10z"/>
<path d="M14270 1780 c0 -5 4 -10 9 -10 6 0 13 5 16 10 3 6 -1 10 -9 10 -9 0
-16 -4 -16 -10z"/>
<path d="M4460 1761 c0 -6 4 -13 10 -16 6 -3 7 1 4 9 -7 18 -14 21 -14 7z"/>
<path d="M10130 1756 c0 -9 5 -16 10 -16 6 0 10 4 10 9 0 6 -4 13 -10 16 -5 3
-10 -1 -10 -9z"/>
<path d="M15200 1759 c0 -6 -9 -9 -20 -6 -11 3 -20 1 -20 -5 0 -16 20 -48 30
-48 16 0 60 42 60 57 0 17 -17 17 -23 1 -4 -10 -6 -10 -6 0 -1 15 -21 16 -21
1z"/>
<path d="M17830 1766 c0 -2 8 -10 18 -17 15 -13 16 -12 3 4 -13 16 -21 21 -21
13z"/>
<path d="M15260 1730 c-9 -6 -10 -10 -3 -10 6 0 15 5 18 10 8 12 4 12 -15 0z"/>
<path d="M720 1710 c-26 -26 -25 -39 3 -80 25 -38 98 -79 140 -80 33 0 171 44
205 66 29 19 29 64 -1 92 -43 41 -97 19 -147 -59 l-33 -51 -18 34 c-22 44 -83
98 -109 98 -11 0 -29 -9 -40 -20z"/>
<path d="M10031 1721 c-8 -5 -11 -16 -6 -30 5 -16 3 -20 -9 -15 -10 4 -16 1
-16 -9 0 -8 6 -18 13 -20 7 -3 4 -6 -6 -6 -11 -1 -15 -6 -11 -13 4 -7 3 -8 -4
-4 -6 4 -9 13 -5 21 4 12 -9 21 -19 13 -2 -1 -14 5 -28 12 -22 12 -24 11 -13
-2 7 -8 10 -17 7 -21 -3 -3 2 -18 11 -34 15 -24 13 -23 -14 7 -17 19 -31 29
-31 23 0 -7 5 -13 10 -13 7 0 7 -6 0 -20 -6 -11 -7 -20 -2 -20 5 0 8 -10 6
-22 -1 -13 -3 -26 -3 -30 -1 -5 -8 -8 -17 -8 -10 0 -14 -5 -10 -16 3 -9 2 -12
-4 -9 -6 4 -24 0 -41 -9 -29 -14 -30 -14 -24 5 4 11 2 19 -4 19 -6 0 -11 -4
-11 -10 0 -11 -51 9 -62 25 -5 6 -8 4 -8 -4 0 -8 -8 -23 -17 -34 -17 -19 -17
-20 -1 -14 10 3 20 2 23 -3 4 -6 -5 -10 -19 -10 -22 0 -26 -5 -26 -29 0 -16 4
-41 10 -55 6 -18 6 -27 -2 -32 -7 -4 -14 -2 -16 4 -6 19 -32 14 -32 -5 -1 -16
-2 -16 -13 -2 -7 8 -21 20 -31 26 -21 12 -31 43 -14 43 7 0 6 5 -1 14 -9 11
-9 15 1 19 7 2 10 8 6 12 -4 4 -18 1 -30 -7 -25 -16 -31 -13 -67 34 -12 17
-11 18 20 13 31 -5 28 -1 -11 11 -10 4 -8 8 10 17 27 14 41 41 16 31 -9 -3
-13 -10 -10 -15 3 -5 -2 -9 -12 -9 -24 0 -53 -37 -47 -60 3 -12 0 -20 -6 -20
-7 0 -10 -4 -7 -8 2 -4 1 -14 -4 -22 -7 -11 -11 -11 -23 -1 -11 8 -17 9 -22 1
-3 -6 -10 -8 -15 -5 -4 3 -7 -3 -5 -12 5 -35 -8 -35 -25 1 l-16 37 -13 -27
c-8 -19 -9 -30 -1 -39 9 -10 3 -15 -22 -21 -18 -5 -43 -7 -55 -7 -15 1 -23 -4
-23 -13 0 -8 -4 -13 -9 -9 -6 3 -14 -2 -19 -11 -7 -13 -11 -14 -17 -4 -5 8 -1
16 9 22 19 11 21 28 3 28 -7 0 -18 -14 -24 -31 -7 -17 -16 -28 -22 -25 -5 4
-12 2 -16 -4 -4 -6 -11 -8 -16 -4 -5 3 -7 9 -4 14 3 5 -9 11 -26 15 -21 5 -27
10 -19 15 18 11 5 40 -19 40 -11 0 -25 2 -33 3 -7 2 -10 2 -5 0 4 -3 7 -11 7
-19 0 -10 -6 -11 -22 -5 -13 4 -29 6 -37 3 -8 -3 -12 1 -9 9 3 8 -5 22 -16 32
-12 10 -16 16 -11 14 6 -3 16 1 23 9 10 10 10 14 1 14 -7 0 -9 3 -6 7 10 10
-24 43 -44 43 -10 0 -20 4 -23 9 -7 11 -56 20 -73 14 -7 -3 -13 -16 -13 -28 0
-13 -6 -25 -12 -27 -9 -3 -8 -12 5 -31 10 -15 13 -27 7 -27 -5 0 -9 -3 -8 -7
3 -18 -23 -63 -37 -63 -8 0 -14 -4 -12 -9 2 -10 -50 -61 -56 -55 -3 3 -7 -2
-11 -11 -3 -9 1 -18 9 -21 8 -4 13 -10 10 -14 -3 -4 8 -27 24 -51 16 -24 27
-47 24 -53 -4 -5 -1 -6 6 -1 7 4 11 15 8 25 -7 25 20 14 28 -11 4 -11 14 -19
23 -17 9 1 23 -1 30 -5 7 -5 12 -3 12 5 0 8 5 6 11 -4 5 -10 15 -18 22 -18 8
0 8 3 -2 9 -10 7 -11 13 -2 27 9 17 10 17 11 2 0 -10 5 -18 10 -18 6 0 10 -7
10 -16 0 -8 12 -32 28 -52 20 -27 23 -34 10 -29 -10 3 -18 2 -18 -2 0 -19 13
-41 24 -41 6 0 12 -9 12 -19 0 -11 -4 -17 -8 -15 -4 3 -8 -3 -9 -13 0 -10 -3
-13 -6 -5 -2 6 -9 12 -15 12 -6 0 -4 -8 5 -18 10 -10 17 -24 17 -30 0 -17 53
-67 69 -64 7 2 10 -1 7 -7 -3 -5 1 -17 10 -26 14 -13 19 -14 26 -3 7 10 8 8 4
-5 -3 -9 -1 -17 5 -17 6 0 13 9 16 20 3 11 9 20 14 20 5 0 9 7 9 15 0 8 -5 15
-11 15 -14 0 11 24 34 33 9 3 17 11 17 17 0 5 7 10 16 10 14 0 14 -3 4 -15
-11 -14 -7 -19 13 -16 4 0 7 -4 7 -9 0 -12 -40 -29 -55 -23 -6 2 -12 -8 -13
-23 -1 -17 2 -24 11 -21 6 2 13 9 13 15 3 23 4 24 19 12 13 -10 13 -15 3 -21
-25 -16 0 -19 40 -5 36 13 42 13 42 1 0 -15 -35 -30 -50 -20 -5 3 -10 1 -10
-4 0 -6 5 -11 10 -11 6 0 10 -7 10 -17 0 -9 3 -13 7 -10 3 4 16 0 29 -8 20
-13 23 -12 28 1 9 24 8 25 -18 18 -13 -3 -27 -1 -30 4 -8 13 29 26 45 16 8 -4
8 0 0 15 -16 29 2 26 25 -4 17 -23 63 -37 49 -15 -8 13 1 13 27 -1 17 -9 18
-13 7 -20 -12 -8 -12 -11 1 -19 8 -5 20 -11 25 -13 6 -2 5 -10 -2 -19 -7 -8
-10 -18 -6 -21 3 -4 1 -12 -5 -19 -15 -18 -13 -30 6 -52 16 -18 16 -18 -5 -12
-14 5 -23 3 -23 -3 0 -10 14 -15 33 -12 4 0 7 -3 7 -8 0 -5 -24 -8 -54 -7 -44
1 -52 4 -43 14 6 7 18 11 28 9 11 -3 16 0 13 8 -4 8 -22 13 -48 13 -44 0 -66
-19 -72 -63 -1 -11 -5 -28 -9 -37 -6 -14 -2 -16 17 -13 49 10 92 15 81 9 -8
-4 -9 -13 -2 -30 12 -34 12 -36 -8 -33 -34 3 -42 -1 -57 -28 -8 -16 -17 -27
-20 -25 -16 6 -26 0 -26 -17 0 -10 9 -21 20 -24 36 -9 48 -87 13 -87 -8 0 -11
-4 -8 -10 3 -5 1 -10 -4 -10 -13 0 -14 17 -2 24 14 9 2 43 -15 43 -9 0 -11 -4
-6 -9 6 -6 5 -21 -1 -38 -8 -22 -7 -33 6 -54 22 -33 35 -33 43 -1 3 14 15 30
26 36 15 8 17 14 8 24 -9 11 -7 12 9 8 15 -4 20 0 20 13 0 24 8 75 13 78 9 8
78 14 78 7 0 -20 45 -20 63 0 10 11 23 16 29 13 7 -5 3 -14 -13 -27 -21 -17
-22 -19 -4 -16 11 2 26 0 33 -4 6 -5 12 -4 12 1 0 11 39 4 57 -10 6 -5 21 -8
32 -6 11 2 19 -1 18 -7 -1 -5 -8 -9 -14 -9 -7 1 -13 -4 -13 -12 0 -8 -5 -14
-11 -14 -5 0 -7 5 -4 10 10 16 -1 11 -16 -7 -8 -10 -9 -14 -2 -10 6 4 14 4 17
-1 3 -5 19 -7 35 -6 26 2 31 -2 31 -21 0 -20 5 -24 30 -23 20 1 35 9 45 25 15
22 15 24 -1 21 -9 -2 -19 3 -22 11 -3 8 0 11 7 7 18 -12 12 12 -6 24 -17 11
-17 11 0 6 10 -3 21 -6 23 -6 2 0 4 -6 4 -12 0 -9 14 -12 40 -12 42 2 54 -10
20 -19 -14 -4 -19 -12 -17 -28 2 -13 9 -25 15 -27 7 -2 9 5 7 18 -2 11 0 18 4
15 5 -3 12 3 16 13 6 16 7 16 16 -1 6 -9 15 -15 20 -11 5 3 9 2 8 -3 -3 -20 2
-27 11 -13 9 13 12 12 25 -4 8 -11 12 -22 9 -25 -3 -3 -9 1 -13 8 -6 8 -11 9
-15 3 -8 -13 11 -65 22 -58 10 6 43 -19 46 -36 1 -7 5 -19 10 -27 13 -20 27 7
19 38 -4 17 -2 22 6 17 6 -4 11 -2 11 3 0 22 18 10 30 -19 7 -16 16 -27 21
-24 5 3 9 1 9 -5 0 -5 -6 -12 -12 -14 -10 -4 -10 -6 -1 -6 6 -1 20 12 29 29
13 21 20 26 26 17 6 -9 8 -9 8 2 0 11 3 11 15 1 15 -12 11 -35 -5 -25 -4 3 -6
-4 -3 -15 3 -11 2 -28 -2 -37 -17 -39 -14 -41 61 -41 60 0 74 3 74 15 0 10 6
13 15 9 14 -5 13 -2 -1 24 -10 16 -22 28 -28 27 -5 -1 -12 6 -14 17 -2 10 0
16 5 13 5 -4 10 0 10 8 0 8 -6 16 -13 19 -9 3 -11 -1 -7 -11 5 -13 2 -15 -11
-10 -10 4 -15 3 -11 -3 3 -6 -1 -7 -9 -4 -9 3 -16 11 -17 18 0 6 -4 2 -9 -9
-8 -19 -9 -19 -9 3 -1 17 -7 22 -26 22 -35 0 -22 26 21 42 19 6 37 21 40 31 4
12 9 16 13 9 5 -8 11 -5 20 7 8 11 21 16 32 14 13 -4 19 0 19 12 0 12 -6 16
-18 13 -11 -3 -19 0 -19 7 0 7 6 11 14 8 9 -4 11 0 7 11 -5 12 0 16 17 15 13
0 33 -4 43 -8 18 -7 18 -8 2 -14 -10 -4 -22 -5 -27 -1 -5 3 -9 -2 -9 -11 0
-20 30 -32 39 -16 4 7 15 9 25 5 15 -6 17 -4 9 12 -11 22 -11 44 -1 43 4 0 17
-3 28 -6 20 -5 20 -7 4 -24 -10 -11 -15 -20 -13 -22 3 -2 38 -19 73 -35 5 -3
6 0 2 7 -5 7 -1 9 8 5 10 -4 16 -1 16 9 0 18 37 29 45 13 3 -8 7 -8 11 2 7 15
25 16 21 0 -1 -6 7 -13 18 -15 17 -3 18 -2 5 7 -12 9 -7 10 21 6 34 -6 35 -5
33 25 -2 22 2 29 12 25 8 -3 14 1 14 9 0 8 -4 15 -10 15 -5 0 -7 7 -3 16 5 13
10 11 30 -13 22 -25 25 -26 34 -10 6 9 17 17 25 17 12 0 15 8 11 34 -4 28 -2
33 13 29 10 -3 21 0 25 7 5 8 11 7 23 -2 13 -11 15 -10 10 9 -4 16 -2 23 8 24
36 3 50 6 66 13 22 10 41 -2 34 -20 -3 -8 1 -14 8 -14 10 0 12 7 8 22 -4 16
-2 19 9 12 19 -11 42 -11 51 1 4 5 18 -3 32 -18 15 -16 31 -25 36 -22 6 3 10
1 10 -4 0 -16 37 -13 54 5 9 8 19 13 24 11 12 -8 112 -11 112 -4 0 4 9 16 19
26 12 12 17 27 14 41 -4 14 1 26 13 35 17 13 17 14 2 9 -20 -7 -26 20 -8 31 7
4 7 13 0 24 -6 12 -5 22 2 29 9 9 8 12 -2 12 -12 1 -11 3 2 10 20 12 68 -7 68
-27 0 -7 6 -12 13 -11 6 2 11 -2 10 -9 -2 -7 3 -10 11 -7 8 3 16 -3 19 -15 3
-12 -1 -22 -9 -25 -8 -3 -13 -17 -12 -31 2 -20 8 -25 28 -24 23 0 23 1 5 9
-17 7 -15 9 12 9 31 1 58 -19 35 -27 -8 -2 -7 -8 3 -19 8 -8 13 -19 10 -23 -3
-5 4 -19 15 -30 11 -11 18 -25 15 -30 -4 -6 -1 -10 5 -10 7 0 9 8 5 19 -9 30
12 35 45 11 25 -18 30 -19 30 -5 0 25 38 0 42 -27 4 -32 23 -23 21 10 -1 15 1
19 3 9 6 -19 31 -17 26 2 -1 6 2 11 8 11 13 0 13 -17 -1 -25 -6 -4 -8 -13 -5
-21 3 -7 1 -16 -5 -20 -6 -3 -8 -12 -5 -20 7 -18 -4 -45 -15 -38 -5 3 -9 0 -9
-5 0 -6 9 -11 19 -11 11 0 23 -5 27 -11 5 -9 -1 -10 -22 -5 -26 7 -27 6 -11
-6 17 -13 17 -15 3 -27 -8 -7 -21 -9 -27 -5 -7 4 -9 3 -6 -3 4 -6 -3 -13 -14
-16 -12 -3 -18 -10 -14 -16 3 -6 -2 -11 -12 -11 -15 0 -16 -2 -3 -10 11 -7 19
-5 32 10 10 12 23 18 33 14 14 -6 14 -8 -2 -27 -17 -19 -17 -20 -1 -14 10 3
17 3 15 -2 -1 -5 9 -18 23 -30 l25 -23 -23 5 c-16 4 -21 2 -15 -6 5 -7 8 -19
7 -27 -1 -8 -2 -21 -3 -29 -1 -8 -7 -11 -17 -7 -10 4 -14 1 -12 -6 4 -10 197
-14 914 -16 500 -1 915 0 923 3 11 4 11 9 -1 27 -15 22 -48 34 -48 17 0 -5 6
-9 14 -9 8 0 17 -4 20 -9 7 -11 -13 -9 -32 3 -8 4 -10 16 -6 28 4 13 1 24 -7
29 -10 6 -10 9 -2 9 7 0 17 -8 22 -17 6 -10 11 -14 11 -9 0 6 7 1 15 -10 10
-14 14 -15 15 -5 0 11 4 9 15 -5 11 -14 14 -15 15 -4 0 9 3 11 8 5 7 -10 10
-11 63 -13 16 -1 28 -6 24 -11 -3 -6 4 -9 15 -8 24 2 26 12 5 21 -11 4 -14 15
-11 38 6 51 17 88 26 88 5 0 7 6 6 13 -7 31 -20 47 -38 47 -15 0 -18 4 -13 17
4 10 9 27 12 38 11 44 35 85 50 85 10 0 14 6 10 20 -3 10 3 28 12 39 16 18 18
19 28 2 7 -12 8 -23 1 -35 -11 -19 -2 -37 10 -20 4 5 13 9 20 8 6 -1 16 -2 22
-3 5 0 9 -4 9 -8 -1 -5 -1 -17 0 -28 2 -19 2 -19 12 -2 11 19 3 60 -11 52 -5
-3 -11 -1 -14 4 -10 15 12 23 33 11 17 -8 20 -7 18 11 -1 14 -7 19 -19 16 -13
-4 -18 1 -18 14 0 10 5 19 11 19 5 0 7 -5 4 -10 -4 -6 5 -10 20 -10 14 0 24
-4 20 -9 -3 -5 -1 -12 4 -15 11 -7 9 13 -2 31 -11 17 1 16 18 -1 8 -7 11 -16
8 -20 -4 -3 -1 -6 5 -6 6 0 9 -7 5 -17 -4 -10 -2 -14 5 -10 6 4 13 21 17 37 4
17 13 30 20 30 13 0 29 26 28 48 -1 38 -4 44 -18 38 -17 -6 -21 9 -5 19 6 3
10 11 10 16 0 5 -11 2 -25 -8 -17 -12 -24 -25 -22 -41 3 -17 0 -22 -18 -22
-13 0 -25 7 -28 15 -4 8 -15 12 -27 10 -17 -3 -19 -1 -11 9 8 9 6 18 -9 33
-10 12 -17 23 -14 25 9 9 11 69 3 74 -5 3 -7 10 -3 15 3 5 2 9 -3 8 -29 -5
-41 2 -36 22 4 12 0 25 -8 31 -11 8 -10 9 4 4 14 -4 17 1 17 24 0 17 5 30 11
30 6 0 8 7 5 16 -5 14 -4 15 9 4 13 -11 18 -10 32 9 10 15 18 19 23 12 3 -7
14 -9 23 -5 9 3 15 10 12 14 -3 5 11 24 30 44 19 20 35 39 35 42 0 3 7 12 15
20 17 18 20 33 5 35 -5 1 -14 3 -20 4 -5 1 -13 3 -17 4 -5 1 -2 5 5 10 10 6 9
11 -4 22 -11 9 -15 9 -10 2 4 -7 2 -21 -3 -30 -9 -16 -10 -15 -11 6 0 20 -2
21 -15 11 -10 -8 -15 -9 -15 -2 0 6 8 16 18 22 13 8 13 10 2 9 -39 -4 -60 2
-60 16 0 13 -4 14 -20 5 -13 -7 -20 -7 -20 -1 0 6 -10 15 -21 22 -17 9 -20 8
-17 -3 3 -7 1 -23 -3 -35 -6 -18 -3 -26 18 -43 27 -21 24 -27 -7 -10 -13 7
-21 5 -31 -7 -12 -15 -12 -16 5 -10 16 6 17 5 6 -8 -11 -14 -15 -14 -30 0 -11
10 -19 12 -27 4 -8 -8 -13 -8 -17 0 -4 6 -4 11 1 11 4 0 1 5 -7 10 -10 6 -11
10 -2 10 6 0 12 5 12 11 0 6 -8 9 -18 7 -12 -3 -22 3 -29 18 -9 19 -7 23 11
29 13 4 16 8 9 12 -21 8 -15 20 12 25 17 4 25 1 25 -9 0 -8 4 -12 9 -9 13 8
42 -4 35 -15 -3 -5 3 -9 12 -9 16 0 16 1 0 19 -14 15 -15 24 -7 38 8 14 11 15
11 3 0 -12 4 -10 15 4 15 20 21 46 8 33 -3 -4 -15 0 -25 10 -10 9 -18 13 -18
9 0 -4 -11 5 -23 20 -16 19 -26 24 -31 16 -4 -8 2 -16 16 -21 22 -9 22 -10 -7
-11 -24 -2 -26 -3 -10 -8 18 -6 21 -14 16 -38 0 -3 -14 4 -31 16 -16 12 -30
18 -30 14 0 -12 -23 14 -26 28 -2 7 -6 24 -10 37 -6 19 -4 22 6 16 10 -6 12
-4 6 10 -4 11 -2 22 6 27 11 6 11 8 0 8 -7 0 -15 -7 -18 -15 -8 -20 -24 -19
-24 0 0 9 8 19 18 22 9 4 20 11 24 16 4 6 13 4 23 -6 21 -22 36 -22 28 0 -4
10 -2 14 5 9 6 -3 13 -2 17 4 4 6 11 8 16 5 5 -4 9 0 10 7 0 7 5 2 10 -11 6
-16 14 -21 25 -17 9 4 22 1 30 -5 10 -8 15 -3 22 23 5 18 5 37 1 42 -11 13
-11 26 -1 26 5 0 14 -10 20 -23 11 -21 11 -21 9 8 -2 24 2 29 16 27 20 -3 23
18 5 36 -17 17 -28 15 -28 -4 0 -11 -6 -13 -19 -9 -13 4 -23 0 -30 -12 -9 -16
-10 -16 -11 -1 0 9 -6 19 -12 22 -7 3 -3 3 10 0 20 -5 26 2 24 27 -1 3 11 4
26 1 15 -3 24 -2 21 2 -10 11 -59 17 -72 9 -7 -4 -16 -8 -22 -8 -5 -1 -18 -5
-29 -10 -14 -6 -23 -2 -36 15 -10 13 -16 30 -13 37 3 7 0 13 -7 13 -6 0 -9 -4
-6 -9 3 -5 -6 -17 -20 -26 -20 -13 -28 -14 -34 -5 -5 9 -9 9 -14 1 -4 -6 -2
-11 3 -11 6 0 11 -5 11 -11 0 -5 -4 -8 -9 -4 -5 3 -12 1 -16 -5 -4 -6 -10 -8
-15 -5 -5 3 -11 1 -15 -5 -12 -20 -22 0 -19 39 3 44 -17 59 -47 34 -13 -11
-22 -11 -43 -2 -14 7 -26 17 -26 23 0 5 -7 1 -15 -10 -8 -10 -15 -14 -15 -7 0
7 -6 10 -14 7 -12 -5 -12 -9 0 -32 17 -33 18 -54 2 -70 -9 -9 -9 -12 0 -12 7
0 12 -4 12 -10 0 -5 -9 -10 -19 -10 -11 0 -22 -4 -25 -9 -4 -5 3 -7 14 -4 15
4 20 0 20 -16 0 -13 6 -21 16 -21 10 0 14 6 10 15 -8 22 -5 21 72 -19 17 -9
32 -13 32 -7 0 12 -41 37 -53 33 -5 -1 -6 2 -3 7 4 5 1 11 -6 13 -7 3 -2 7 10
10 15 4 22 2 22 -8 0 -7 10 -19 23 -25 12 -7 25 -17 29 -23 5 -7 8 -5 8 6 0 9
-6 19 -12 21 -8 3 -5 6 5 6 10 1 16 4 13 9 -2 4 2 18 10 32 7 14 13 19 14 13
0 -7 8 -13 19 -13 16 0 18 -7 17 -45 0 -25 -4 -45 -9 -45 -4 0 -5 -4 -2 -10 3
-5 0 -10 -8 -10 -10 0 -13 -7 -10 -21 7 -27 -40 -73 -68 -66 -15 4 -19 0 -20
-19 -1 -13 -2 -27 -3 -31 -1 -5 -5 -26 -10 -47 -10 -54 -25 -71 -61 -70 -16 0
-34 -2 -40 -5 -5 -3 -14 -6 -20 -6 -5 0 -9 -8 -7 -18 2 -10 -4 -18 -13 -18
-24 -2 -29 -4 -43 -13 -10 -6 -12 -3 -10 10 2 15 -2 18 -21 16 -21 -3 -23 -1
-17 20 18 62 18 70 -4 63 -15 -5 -20 -2 -20 12 -1 14 -4 11 -16 -9 -16 -31
-37 -29 -67 6 -10 12 -16 16 -13 10 4 -7 -7 -14 -28 -18 -36 -7 -69 1 -61 14
3 5 -3 13 -12 19 -19 11 -19 11 36 15 19 1 22 32 5 47 -11 9 -14 8 -14 -6 0
-16 -2 -16 -24 -2 -16 11 -27 12 -34 5 -6 -6 -12 -6 -17 2 -5 7 -1 16 7 21 18
10 13 59 -6 59 -6 0 -4 5 4 10 11 7 18 3 28 -17 13 -23 15 -24 29 -10 14 14
14 17 -1 33 -10 9 -17 30 -16 48 3 46 1 53 -11 33 -9 -15 -12 -16 -25 -2 -16
16 -39 21 -30 7 2 -4 1 -14 -3 -21 -7 -10 -13 -11 -27 -2 -11 6 -14 11 -6 11
10 0 10 4 -2 16 -22 21 -20 33 3 27 13 -3 24 2 33 16 16 26 25 27 33 1 3 -11
15 -20 25 -20 20 0 34 26 19 36 -6 3 -8 13 -5 21 3 8 0 21 -8 29 -19 18 -24
18 -22 -3 0 -11 -7 -18 -20 -19 -28 -2 -44 -12 -44 -28 0 -16 -38 -28 -46 -15
-3 5 -10 6 -16 3 -7 -4 -6 -9 2 -14 8 -5 7 -9 -4 -13 -9 -4 -16 -2 -16 3 0 5
-9 12 -20 15 -11 3 -20 15 -20 25 0 10 -5 22 -12 26 -7 5 -8 3 -3 -6 5 -9 4
-11 -3 -6 -7 4 -12 15 -12 26 0 10 -7 21 -16 24 -22 8 -21 9 -43 -15 -12 -13
-19 -16 -18 -7 2 43 -1 45 -55 40 -32 -2 -58 -11 -65 -20 -18 -22 -16 -35 3
-28 27 10 10 -18 -19 -32 -15 -7 -27 -18 -27 -25 0 -8 -3 -8 -12 1 -14 14 -48
16 -48 2 0 -14 -113 -7 -118 8 -2 7 -8 12 -13 12 -6 0 -7 -4 -4 -10 3 -5 0
-10 -7 -10 -11 0 -11 -2 0 -9 18 -11 -10 -34 -32 -25 -10 4 -16 1 -16 -7 0 -8
-8 -4 -20 9 -12 12 -29 22 -40 22 -25 0 -36 18 -16 26 9 3 14 9 12 13 -3 4 9
14 25 24 17 9 27 12 24 7 -3 -6 -1 -10 4 -10 17 0 13 20 -4 26 -12 5 -13 10
-4 20 19 23 -7 16 -38 -10 -25 -21 -29 -22 -49 -9 -21 13 -22 13 -17 -6 3 -12
9 -18 14 -15 5 3 9 -2 9 -11 0 -12 -5 -15 -17 -11 -16 6 -16 6 0 -12 16 -18
16 -20 -4 -46 -12 -15 -24 -25 -27 -22 -3 3 -11 1 -17 -4 -14 -11 -42 -9 -64
4 -9 6 -12 5 -8 -1 4 -6 -7 -10 -28 -9 -19 0 -35 4 -35 8 0 4 -9 6 -20 5 -12
-1 -18 -7 -16 -14 3 -7 -2 -13 -10 -13 -9 0 -18 9 -21 20 -6 21 -25 29 -21 8
3 -11 -37 -17 -120 -18 -18 0 -31 -4 -27 -9 3 -5 -4 -12 -15 -16 -11 -4 -18
-10 -15 -15 3 -5 13 -7 23 -4 13 5 14 4 3 -4 -8 -6 -25 -6 -42 -2 -23 7 -29 5
-29 -7 0 -10 6 -14 19 -10 10 2 26 0 35 -5 10 -6 16 -5 16 1 0 6 7 8 15 5 8
-4 15 -10 15 -15 0 -4 -7 -6 -15 -3 -8 4 -15 1 -15 -5 0 -6 -8 -11 -17 -11
-16 0 -16 -1 0 -17 16 -16 19 -16 28 -3 7 11 9 8 7 -14 -2 -19 -9 -30 -21 -32
-13 -2 -17 2 -13 12 3 8 0 14 -8 14 -20 0 -27 -12 -15 -27 8 -8 8 -13 1 -13
-6 0 -17 -3 -26 -6 -23 -9 -20 18 4 44 29 31 5 28 -26 -3 -28 -28 -52 -32 -60
-10 -4 8 -13 15 -22 15 -13 0 -13 2 1 18 10 10 14 22 10 25 -3 4 3 7 15 7 18
0 22 6 22 35 0 19 -4 35 -10 35 -5 0 -6 -8 -3 -17 5 -13 2 -15 -11 -10 -12 5
-20 -1 -28 -18 -6 -13 -15 -22 -20 -19 -5 3 -15 1 -22 -5 -10 -8 -17 -7 -26 4
-23 28 -48 37 -70 25 -16 -9 -22 -8 -26 5 -3 8 -10 12 -15 9 -5 -3 -7 -10 -4
-15 4 -5 -1 -9 -9 -9 -19 0 -21 -11 -4 -28 9 -9 8 -12 -6 -12 -10 0 -16 -6
-13 -12 2 -8 -10 -17 -31 -23 -28 -8 -35 -16 -38 -38 -2 -22 0 -26 10 -18 7 6
16 8 19 4 9 -9 9 -40 0 -46 -5 -2 -2 -2 5 -1 6 2 12 -1 12 -5 0 -5 -6 -12 -12
-14 -8 -4 -9 -6 -2 -6 6 -1 17 5 24 13 15 19 40 9 40 -15 0 -10 6 -19 13 -19
8 0 7 -4 -3 -10 -20 -13 -60 -13 -60 0 0 6 -9 10 -19 10 -11 0 -21 5 -23 12
-3 7 -18 13 -34 14 -16 1 -33 3 -37 3 -4 1 -6 20 -5 43 3 40 35 88 58 88 6 0
10 5 10 10 0 6 -11 8 -25 4 -15 -4 -25 -2 -25 5 0 6 -4 11 -10 11 -5 0 -10 -4
-10 -10 0 -18 -42 -52 -66 -54 -13 0 -27 -9 -30 -18 -6 -20 -24 -25 -24 -7 0
7 -12 9 -34 5 -24 -5 -35 -3 -38 6 -4 10 -8 10 -22 -1 -15 -13 -19 -13 -27 0
-6 9 -3 18 9 27 15 11 15 14 2 22 -19 12 -27 12 -34 1 -7 -11 -71 2 -91 19 -7
6 -12 17 -9 24 3 7 -7 25 -21 40 -14 15 -25 31 -25 37 0 5 -5 9 -11 9 -12 0
-8 -52 4 -61 8 -6 -37 -59 -50 -59 -3 0 -3 9 0 20 3 13 0 20 -9 20 -17 0 -18
12 -1 29 10 11 9 13 -5 8 -21 -7 -22 -3 -7 25 10 18 9 20 -5 15 -24 -9 -19 9
7 28 l22 16 -23 -4 c-12 -2 -28 -9 -34 -15 -20 -20 -28 -14 -25 18 4 30 17 55
17 31 0 -7 5 -9 10 -6 6 3 10 2 10 -4 0 -6 7 -8 15 -4 14 5 14 7 0 23 -13 14
-13 19 -3 23 7 3 0 6 -15 6 -16 1 -30 -5 -33 -14 -4 -8 -11 -15 -18 -15 -11 0
-56 40 -84 74 -17 21 -36 21 -28 0 5 -13 0 -16 -29 -12 -19 2 -35 1 -35 -3 0
-4 -16 -10 -36 -13 -28 -6 -34 -11 -29 -24 3 -9 3 -13 -1 -9 -4 4 -13 -1 -20
-11 -11 -15 -13 -14 -25 11 -7 15 -17 27 -22 27 -5 0 -4 7 3 16 8 8 9 14 4 13
-22 -4 -45 2 -40 10 4 5 0 12 -6 14 -10 4 -10 8 1 15 16 12 3 21 -34 24 -15 2
-31 11 -37 22 -9 16 -7 18 9 14 13 -4 22 2 30 18 8 18 8 24 0 25 -7 0 -4 4 7
8 15 6 12 9 -19 18 -33 11 -37 10 -44 -10 l-8 -22 -7 22 c-7 21 -42 38 -51 23
-3 -4 6 -11 20 -14 14 -4 25 -14 25 -22 0 -15 -2 -15 -25 0 -14 9 -30 14 -34
11 -5 -3 -11 0 -13 6 -3 8 -9 6 -20 -5 -25 -24 -39 -20 -32 9 7 27 5 29 -15
16z m199 -43 c0 -19 -2 -20 -10 -8 -13 19 -13 30 0 30 6 0 10 -10 10 -22z
m-180 -68 c0 -11 -4 -20 -9 -20 -7 0 -8 17 -2 38 4 10 11 -2 11 -18z m-93 -72
c-3 -7 -5 -2 -5 12 0 14 2 19 5 13 2 -7 2 -19 0 -25z m2773 -38 c0 -5 -2 -10
-4 -10 -3 0 -8 5 -11 10 -3 6 -1 10 4 10 6 0 11 -4 11 -10z m-120 -22 c0 -6
-6 -5 -15 2 -8 7 -15 14 -15 16 0 2 7 1 15 -2 8 -4 15 -11 15 -16z m-2380 0
c0 -11 -28 -10 -35 1 -3 6 4 9 15 8 11 -1 20 -5 20 -9z m3195 -38 c3 -5 -1
-10 -10 -10 -9 0 -13 5 -10 10 3 6 8 10 10 10 2 0 7 -4 10 -10z m354 -64 c-3
-3 -11 5 -18 17 -13 21 -12 21 5 5 10 -10 16 -20 13 -22z m-4886 -6 c-5 -18
-33 -30 -33 -14 0 5 29 32 37 34 0 0 -1 -9 -4 -20z m2684 -56 c-3 -3 -12 -4
-19 -1 -8 3 -5 6 6 6 11 1 17 -2 13 -5z m-2820 -35 c2 -17 -1 -18 -12 -9 -8 7
-12 16 -9 21 9 16 20 10 21 -12z m2061 9 c16 -16 15 -38 -2 -38 -8 0 -13 8
-12 18 2 9 -2 20 -8 24 -7 5 -7 8 0 8 5 0 15 -5 22 -12z m672 -20 c0 -13 -32
-6 -37 9 -3 7 3 9 16 6 12 -3 21 -10 21 -15z m-695 2 c4 -6 -5 -10 -20 -10
-15 0 -24 4 -20 10 3 6 12 10 20 10 8 0 17 -4 20 -10z m975 -20 c0 -5 -5 -10
-11 -10 -5 0 -7 5 -4 10 3 6 8 10 11 10 2 0 4 -4 4 -10z m-970 -14 c0 -24 -16
-27 -35 -6 -18 19 -17 20 8 20 17 0 27 -5 27 -14z m-2026 -15 c4 -5 -3 -7 -14
-4 -23 6 -26 13 -6 13 8 0 17 -4 20 -9z m21 -31 c3 -5 -3 -10 -15 -10 -12 0
-18 5 -15 10 3 6 10 10 15 10 5 0 12 -4 15 -10z m2555 -23 c0 -5 -4 -5 -10 -2
-5 3 -10 14 -10 23 0 15 2 15 10 2 5 -8 10 -19 10 -23z m50 13 c0 -5 -2 -10
-4 -10 -3 0 -8 5 -11 10 -3 6 -1 10 4 10 6 0 11 -4 11 -10z m-2562 -22 c-2
-13 -7 -21 -13 -19 -5 1 -9 7 -7 12 1 5 -1 8 -5 8 -20 -3 -26 2 -13 11 26 17
42 12 38 -12z m42 12 c0 -5 -4 -10 -10 -10 -5 0 -10 5 -10 10 0 6 5 10 10 10
6 0 10 -4 10 -10z m140 -4 c0 -8 -4 -18 -10 -21 -5 -3 -10 3 -10 14 0 12 5 21
10 21 6 0 10 -6 10 -14z m2394 -37 c-6 -11 -24 -2 -24 11 0 5 7 7 15 4 8 -4
12 -10 9 -15z m200 -41 c-3 -4 0 -8 5 -8 6 0 11 -4 11 -10 0 -17 -14 -11 -28
10 -7 12 -10 26 -6 31 4 8 9 7 15 -2 4 -7 5 -17 3 -21z m26 11 c0 -6 -4 -7
-10 -4 -5 3 -10 11 -10 16 0 6 5 7 10 4 6 -3 10 -11 10 -16z m-515 -5 c9 -9
14 -22 11 -30 -3 -7 0 -15 7 -18 7 -2 5 -5 -5 -5 -9 -1 -19 -6 -21 -11 -3 -6
-4 -5 -3 2 3 15 -22 43 -31 34 -3 -3 0 -12 7 -21 10 -12 9 -16 -6 -22 -11 -3
-22 -11 -26 -17 -6 -8 -10 -8 -15 0 -10 15 -44 21 -60 11 -9 -6 -11 -3 -7 7 4
10 15 14 30 12 20 -4 24 0 25 22 1 15 1 30 0 35 0 4 4 7 9 7 6 0 10 -4 10 -10
0 -5 7 -10 15 -10 8 0 15 7 15 15 0 20 24 19 45 -1z m-2144 -16 c1 -7 1 -16 0
-20 0 -5 4 -7 11 -5 6 1 14 -7 16 -18 4 -16 2 -17 -10 -7 -8 6 -18 9 -21 5 -8
-7 -37 15 -37 28 0 5 8 9 18 9 14 0 15 2 2 10 -13 8 -12 10 3 10 9 0 18 -6 18
-12z m2692 -9 c-8 -8 -13 -7 -18 2 -5 8 -4 10 3 5 7 -4 12 -2 12 5 0 7 3 9 7
6 4 -4 2 -12 -4 -18z m-373 -11 c0 -4 -4 -8 -9 -8 -6 0 -12 4 -15 8 -3 5 1 9
9 9 8 0 15 -4 15 -9z m2551 -16 c-7 -2 -18 1 -23 6 -8 8 -4 9 13 5 13 -4 18
-8 10 -11z m-2267 -28 c-16 -7 -23 -13 -16 -13 23 -2 12 -18 -13 -18 -14 0
-25 3 -25 8 0 5 -4 9 -10 9 -5 0 -10 -10 -10 -22 0 -18 -2 -20 -10 -8 -5 8
-12 11 -15 8 -10 -10 4 -28 20 -28 9 0 12 -8 9 -22 -3 -13 -6 -30 -8 -38 -2
-8 -9 -15 -17 -15 -8 0 -20 -4 -27 -9 -10 -6 -13 -3 -11 10 2 11 0 25 -4 32
-5 8 -3 12 7 12 9 0 16 5 16 11 0 6 -7 9 -14 6 -24 -9 -7 24 27 56 32 29 42
33 52 17 4 -7 16 -3 33 9 15 11 31 17 36 14 5 -3 -4 -12 -20 -19z m26 -8 c0
-3 -4 -8 -10 -11 -5 -3 -10 -1 -10 4 0 6 5 11 10 11 6 0 10 -2 10 -4z m1670
-6 c0 -5 -8 -10 -17 -10 -15 0 -16 2 -3 10 19 12 20 12 20 0z m420 -30 c8 -5
12 -12 9 -15 -8 -8 -39 5 -39 16 0 11 11 11 30 -1z m-2125 -30 c-5 -15 -2 -20
11 -20 10 0 14 -3 11 -7 -4 -3 -2 -12 4 -20 9 -10 8 -13 -2 -13 -26 0 -59 12
-59 22 0 5 4 7 9 3 6 -3 9 4 8 15 -1 11 -6 20 -12 20 -12 0 16 20 28 20 5 0 5
-9 2 -20z m-1244 -1 c11 -5 17 -14 14 -19 -8 -13 -45 0 -45 16 0 17 5 17 31 3z
m3459 1 c0 -5 6 -10 13 -10 13 0 17 -43 5 -55 -12 -12 -43 29 -40 53 3 21 22
32 22 12z m70 6 c0 -3 -4 -8 -10 -11 -5 -3 -10 -1 -10 4 0 6 5 11 10 11 6 0
10 -2 10 -4z m-3580 -16 c4 0 7 -8 5 -17 -1 -10 1 -25 6 -34 7 -13 4 -15 -16
-11 -14 2 -26 9 -26 16 -6 54 -6 57 8 52 8 -3 18 -6 23 -6z m3415 0 c3 -5 1
-10 -4 -10 -6 0 -11 5 -11 10 0 6 2 10 4 10 3 0 8 -4 11 -10z m-2060 -38 c-8
-8 -25 10 -25 26 0 13 2 13 14 -4 8 -10 13 -21 11 -22z m2085 0 c-6 -2 -8 -7
-5 -12 3 -4 -1 -10 -9 -13 -8 -3 -16 2 -19 14 -3 12 0 19 9 19 8 0 14 6 14 13
0 8 4 7 10 -3 6 -10 6 -16 0 -18z m-3360 8 c0 -5 -5 -10 -11 -10 -5 0 -7 5 -4
10 3 6 8 10 11 10 2 0 4 -4 4 -10z m3317 -40 c-6 -24 8 -36 17 -14 5 14 9 14
22 3 14 -12 14 -14 -2 -26 -13 -10 -14 -13 -3 -13 12 0 12 -1 0 -9 -10 -7 -19
-4 -28 7 -10 14 -14 15 -22 3 -6 -9 -8 -3 -6 20 2 19 4 37 4 42 1 4 6 7 12 7
6 0 9 -9 6 -20z m69 11 c-18 -7 -18 -8 -2 -14 9 -4 14 -12 10 -18 -4 -8 -11
-6 -21 4 -18 18 -9 37 15 36 14 0 14 -2 -2 -8z m-3424 -36 c-4 -24 -5 -24 -17
-8 -11 15 -11 19 3 25 9 4 18 7 18 7 1 1 -1 -10 -4 -24z m98 15 c0 -5 -4 -10
-10 -10 -5 0 -10 5 -10 10 0 6 5 10 10 10 6 0 10 -4 10 -10z m-1356 -24 c-6
-15 -34 -23 -34 -10 0 8 34 34 38 30 1 -2 0 -11 -4 -20z m146 4 c0 -13 -5 -18
-15 -14 -8 4 -15 10 -15 16 0 5 5 6 10 3 6 -3 10 -1 10 4 0 6 2 11 5 11 3 0 5
-9 5 -20z m1166 -6 c1 -14 -1 -23 -4 -20 -3 3 -10 -2 -17 -11 -11 -14 -12 -14
-18 6 -3 15 1 26 16 36 12 8 22 15 22 15 0 0 1 -12 1 -26z m-1096 -4 c0 -5 -4
-10 -10 -10 -5 0 -10 5 -10 10 0 6 5 10 10 10 6 0 10 -4 10 -10z m2414 -75
c-5 -13 -2 -14 19 -6 19 8 25 7 22 -2 -7 -17 15 -46 22 -29 7 18 19 15 20 -5
2 -27 8 -46 18 -63 8 -13 7 -13 -8 -1 -9 7 -17 19 -17 27 0 21 -20 27 -38 11
-9 -8 -32 -17 -50 -20 -28 -6 -33 -4 -31 11 3 32 -1 42 -16 42 -8 0 -15 4 -15
10 0 5 7 7 15 4 8 -4 15 -2 15 3 0 8 27 26 47 32 1 1 0 -6 -3 -14z m-339 -83
c-3 -3 -11 0 -18 7 -9 10 -8 11 6 5 10 -3 15 -9 12 -12z m250 -42 c3 -5 1 -10
-4 -10 -6 0 -11 5 -11 10 0 6 2 10 4 10 3 0 8 -4 11 -10z m-365 -10 c0 -5 -7
-7 -15 -4 -8 4 -15 8 -15 10 0 2 7 4 15 4 8 0 15 -4 15 -10z m460 -25 c-7 -8
-9 -15 -5 -15 4 0 1 -8 -6 -17 -10 -11 -10 -14 -1 -9 17 10 15 -2 -3 -21 -12
-12 -19 -13 -30 -3 -8 7 -15 9 -16 4 -1 -5 -4 2 -8 16 -4 14 -13 24 -20 22 -7
-1 -10 2 -7 7 3 5 20 8 37 7 17 -1 38 4 47 11 23 17 27 16 12 -2z m-2277 -10
c-3 -9 -8 -14 -10 -11 -3 3 -2 9 2 15 9 16 15 13 8 -4z m2312 -26 c2 -17 0
-18 -13 -5 -8 8 -11 19 -7 26 9 15 18 5 20 -21z m33 -3 c-7 -8 -15 -12 -17
-11 -5 6 10 25 20 25 5 0 4 -6 -3 -14z m-2394 -26 c-6 -6 -15 -5 -24 1 -13 9
-12 10 3 5 9 -3 17 0 17 6 0 6 3 8 7 5 4 -4 2 -12 -3 -17z m51 -9 c-3 -6 -11
-11 -17 -11 -6 0 -6 6 2 15 14 17 26 13 15 -4z m4423 -9 c2 -7 -1 -12 -8 -12
-6 0 -9 4 -6 9 4 5 1 12 -4 14 -6 3 -5 4 2 3 6 -1 14 -8 16 -14z m-4484 -17
c3 -8 1 -15 -4 -15 -6 0 -10 7 -10 15 0 8 2 15 4 15 2 0 6 -7 10 -15z m2150 7
c3 -5 -1 -9 -9 -9 -8 0 -15 4 -15 9 0 4 4 8 9 8 6 0 12 -4 15 -8z m-2058 -37
c3 -14 10 -22 15 -19 5 3 6 -2 3 -10 -8 -21 -21 -20 -33 2 -10 16 -10 16 -11
0 0 -10 -4 -18 -10 -18 -5 0 -9 -5 -7 -12 1 -6 -6 -14 -15 -16 -24 -5 -23 10
2 38 12 13 18 30 15 37 -2 8 0 11 5 8 6 -3 10 -1 10 4 0 21 20 10 26 -14z
m1624 -6 c0 -14 -16 -11 -29 5 -10 12 -8 13 8 9 12 -3 21 -9 21 -14z m-1027
-38 c-8 -31 -33 -35 -33 -6 0 18 5 25 19 25 14 0 18 -5 14 -19z m-713 -11 c0
-5 -7 -7 -15 -4 -8 4 -12 10 -9 15 6 11 24 2 24 -11z m2450 10 c0 -5 -2 -10
-4 -10 -3 0 -8 5 -11 10 -3 6 -1 10 4 10 6 0 11 -4 11 -10z m-1122 -46 c-4 -3
-12 5 -18 18 -12 22 -12 22 6 6 10 -10 15 -20 12 -24z m52 17 c0 -5 -6 -14
-14 -20 -16 -13 -32 2 -21 19 8 12 35 13 35 1z m-360 -21 c0 -5 -4 -10 -10
-10 -5 0 -10 5 -10 10 0 6 5 10 10 10 6 0 10 -4 10 -10z m-685 -10 c3 -5 1
-10 -4 -10 -6 0 -11 5 -11 10 0 6 2 10 4 10 3 0 8 -4 11 -10z m-98 -6 c-3 -3
-12 -4 -19 -1 -8 3 -5 6 6 6 11 1 17 -2 13 -5z m843 -65 c0 -6 -4 -7 -10 -4
-5 3 -10 11 -10 16 0 6 5 7 10 4 6 -3 10 -11 10 -16z m-776 -10 c-3 -5 -10 -7
-15 -3 -5 3 -7 10 -3 15 3 5 10 7 15 3 5 -3 7 -10 3 -15z m532 -5 c18 -15 18
-15 -2 -5 -14 7 -24 7 -31 0 -7 -7 -12 -5 -16 5 -8 21 23 21 49 0z m-256 -88
c0 -3 -4 -8 -10 -11 -5 -3 -10 -1 -10 4 0 6 5 11 10 11 6 0 10 -2 10 -4z
m3580 -76 c6 -11 8 -20 6 -20 -3 0 -10 9 -16 20 -6 11 -8 20 -6 20 3 0 10 -9
16 -20z m-3320 -36 c0 -8 -4 -14 -8 -14 -4 0 -8 9 -8 19 0 11 4 17 8 15 4 -3
8 -12 8 -20z"/>
<path d="M14670 1715 c0 -16 23 -26 38 -16 6 4 1 11 -14 18 -19 9 -24 8 -24
-2z"/>
<path d="M15480 1720 c0 -5 5 -10 11 -10 5 0 7 5 4 10 -3 6 -8 10 -11 10 -2 0
-4 -4 -4 -10z"/>
<path d="M15570 1715 c0 -9 -4 -14 -9 -11 -5 4 -7 -3 -4 -14 3 -11 9 -23 14
-26 15 -9 -11 -46 -28 -40 -13 5 -14 4 -4 -8 14 -17 4 -25 -33 -28 -26 -2 -35
-21 -16 -33 6 -3 10 -15 10 -26 0 -16 6 -19 35 -16 20 1 35 7 35 15 0 6 7 12
16 12 9 0 14 6 11 13 -2 6 0 24 4 39 4 15 4 27 1 27 -30 -5 -35 3 -14 20 22
19 28 41 15 55 -5 4 -8 13 -8 19 0 5 -6 12 -12 15 -7 2 -13 -4 -13 -13z"/>
<path d="M11080 1700 c-6 -11 -20 -20 -30 -20 -11 0 -20 -4 -20 -10 0 -13 16
-13 41 0 13 7 25 7 38 1 15 -8 20 -7 25 6 4 9 5 16 4 17 -2 1 -13 7 -25 13
-19 11 -24 10 -33 -7z"/>
<path d="M14258 1672 c-13 -31 -14 -39 -3 -51 9 -9 10 -22 5 -41 -10 -34 4
-43 66 -45 41 -1 41 -1 27 25 -16 30 -17 60 -2 60 6 0 8 -9 4 -20 -4 -11 -2
-20 4 -20 6 0 11 13 11 28 0 21 -5 28 -20 29 -11 1 -18 -2 -15 -7 3 -5 1 -11
-4 -14 -5 -3 -9 10 -8 29 1 42 -7 52 -30 34 -9 -8 -14 -9 -11 -4 4 6 3 16 0
23 -5 7 -14 -3 -24 -26z m36 -20 c2 -4 -4 -9 -15 -9 -10 -1 -19 2 -19 8 0 11
27 12 34 1z"/>
<path d="M15510 1706 c0 -2 7 -7 16 -10 8 -3 12 -2 9 4 -6 10 -25 14 -25 6z"/>
<path d="M13552 1665 c2 -15 -3 -21 -21 -23 -14 -2 -21 0 -17 7 5 7 1 8 -9 4
-13 -5 -14 -8 -3 -15 10 -7 9 -11 -6 -23 -11 -8 -14 -15 -7 -15 8 0 10 -7 6
-20 -5 -14 -2 -20 9 -20 9 0 16 -6 17 -12 0 -7 8 10 17 37 9 28 21 56 26 63 5
8 4 18 -4 25 -9 9 -11 7 -8 -8z m-27 -75 c3 -5 1 -10 -4 -10 -6 0 -11 5 -11
10 0 6 2 10 4 10 3 0 8 -4 11 -10z"/>
<path d="M17370 1675 c0 -2 9 -9 20 -15 16 -9 18 -8 14 5 -5 13 -34 22 -34 10z"/>
<path d="M14350 1660 c0 -5 5 -10 11 -10 5 0 7 5 4 10 -3 6 -8 10 -11 10 -2 0
-4 -4 -4 -10z"/>
<path d="M15290 1630 c-9 -6 -10 -10 -3 -10 6 0 15 5 18 10 8 12 4 12 -15 0z"/>
<path d="M17350 1614 c-14 -35 -13 -44 6 -44 8 0 13 -4 9 -10 -3 -5 -13 -7
-23 -4 -14 5 -14 4 -2 -4 10 -8 22 -6 42 6 17 10 23 19 16 23 -6 4 -8 14 -5
24 4 9 3 14 -3 10 -6 -3 -10 1 -10 9 0 25 -20 19 -30 -10z"/>
<path d="M14497 1624 c-9 -9 23 -54 38 -54 8 0 10 9 7 25 -2 14 -8 22 -13 19
-5 -3 -9 0 -9 5 0 12 -13 15 -23 5z"/>
<path d="M13805 1589 c-3 -9 -15 -19 -27 -23 -12 -3 -19 -8 -16 -12 11 -10 48
7 48 22 0 8 4 13 9 10 5 -3 11 0 14 7 3 8 -1 14 -9 14 -7 0 -16 -8 -19 -18z"/>
<path d="M15435 1600 c-3 -5 -1 -10 4 -10 6 0 11 5 11 10 0 6 -2 10 -4 10 -3
0 -8 -4 -11 -10z"/>
<path d="M9710 1585 c0 -8 4 -15 8 -15 5 0 9 7 9 15 0 8 -4 15 -9 15 -4 0 -8
-7 -8 -15z"/>
<path d="M9448 1583 c7 -3 16 -2 19 1 4 3 -2 6 -13 5 -11 0 -14 -3 -6 -6z"/>
<path d="M15612 1576 c1 -10 8 -17 13 -17 15 1 12 24 -3 29 -9 3 -13 -2 -10
-12z"/>
<path d="M13060 1569 c0 -5 5 -7 10 -4 6 3 10 8 10 11 0 2 -4 4 -10 4 -5 0
-10 -5 -10 -11z"/>
<path d="M3526 1557 c3 -10 9 -15 12 -12 3 3 0 11 -7 18 -10 9 -11 8 -5 -6z"/>
<path d="M3560 1560 c0 -5 3 -10 8 -10 4 0 13 -4 21 -9 12 -8 12 -12 2 -24 -9
-12 -9 -17 0 -23 8 -4 9 -3 5 4 -4 7 -3 12 3 12 5 0 12 -6 14 -12 3 -8 6 -5 6
5 1 10 6 15 11 12 6 -3 10 4 9 17 0 13 -3 17 -6 10 -3 -9 -12 -7 -30 8 -28 22
-43 25 -43 10z"/>
<path d="M9664 1562 c3 -5 0 -13 -6 -15 -9 -4 -10 -6 -1 -6 17 -1 25 16 12 25
-7 4 -9 3 -5 -4z"/>
<path d="M12818 1563 c7 -3 16 -2 19 1 4 3 -2 6 -13 5 -11 0 -14 -3 -6 -6z"/>
<path d="M9450 1551 c0 -6 4 -13 10 -16 6 -3 7 1 4 9 -7 18 -14 21 -14 7z"/>
<path d="M14470 1550 c0 -5 7 -10 15 -10 8 0 15 -4 15 -10 0 -5 -4 -10 -10
-10 -5 0 -10 -7 -10 -15 0 -9 6 -12 15 -8 9 3 14 8 11 11 -3 2 0 14 6 26 6 11
7 18 3 14 -4 -4 -16 -3 -26 3 -13 6 -19 6 -19 -1z"/>
<path d="M13051 1536 c-10 -12 -10 -20 0 -38 11 -21 11 -22 -5 -9 -15 13 -19
13 -26 1 -13 -22 -4 -27 40 -24 29 2 43 -2 50 -14 8 -15 11 -15 20 -2 13 20
12 36 -3 52 -8 7 -12 20 -10 28 3 10 0 9 -7 -2 -6 -10 -16 -18 -23 -18 -8 0
-8 3 2 9 9 6 10 11 2 15 -6 4 -11 4 -11 -1 0 -4 -4 -2 -9 5 -6 10 -10 10 -20
-2z"/>
<path d="M17390 1540 c-8 -5 -12 -11 -9 -14 2 -3 11 -1 19 4 8 5 12 11 9 14
-2 3 -11 1 -19 -4z"/>
<path d="M14525 1530 c-3 -5 -1 -10 4 -10 6 0 11 5 11 10 0 6 -2 10 -4 10 -3
0 -8 -4 -11 -10z"/>
<path d="M15025 1526 c-3 -9 -7 -22 -9 -30 -3 -8 0 -17 7 -19 9 -3 8 -8 -2
-21 -12 -14 -12 -16 3 -10 9 3 16 1 16 -5 0 -8 4 -8 14 1 16 15 10 38 -10 38
-8 0 -14 5 -14 10 0 6 7 10 16 10 9 0 14 7 12 17 -4 22 -27 28 -33 9z"/>
<path d="M3710 1520 c0 -5 5 -10 11 -10 5 0 7 5 4 10 -3 6 -8 10 -11 10 -2 0
-4 -4 -4 -10z"/>
<path d="M12451 1514 c0 -11 3 -14 6 -6 3 7 2 16 -1 19 -3 4 -6 -2 -5 -13z"/>
<path d="M13183 1506 c7 -14 13 -23 15 -21 7 6 -9 45 -18 45 -4 0 -3 -11 3
-24z"/>
<path d="M14550 1521 c0 -6 4 -13 10 -16 6 -3 7 1 4 9 -7 18 -14 21 -14 7z"/>
<path d="M12475 1510 c-3 -5 -1 -10 4 -10 6 0 11 5 11 10 0 6 -2 10 -4 10 -3
0 -8 -4 -11 -10z"/>
<path d="M13140 1511 c0 -5 7 -12 16 -15 14 -5 15 -4 4 9 -14 17 -20 19 -20 6z"/>
<path d="M13291 1504 c0 -11 3 -14 6 -6 3 7 2 16 -1 19 -3 4 -6 -2 -5 -13z"/>
<path d="M15165 1510 c3 -5 11 -10 16 -10 6 0 7 5 4 10 -3 6 -11 10 -16 10 -6
0 -7 -4 -4 -10z"/>
<path d="M15235 1510 c-7 -12 -7 -12 23 -15 27 -3 28 1 3 15 -13 7 -22 7 -26
0z"/>
<path d="M9540 1480 c-13 -8 -12 -10 3 -10 9 0 17 5 17 10 0 12 -1 12 -20 0z"/>
<path d="M13210 1468 c0 -19 2 -20 10 -8 13 19 13 30 0 30 -5 0 -10 -10 -10
-22z"/>
<path d="M9401 1464 c0 -11 3 -14 6 -6 3 7 2 16 -1 19 -3 4 -6 -2 -5 -13z"/>
<path d="M11790 1470 c0 -5 7 -10 16 -10 8 0 12 5 9 10 -3 6 -10 10 -16 10 -5
0 -9 -4 -9 -10z"/>
<path d="M1347 1463 c-4 -3 -7 -11 -7 -17 0 -6 5 -5 12 2 6 6 9 14 7 17 -3 3
-9 2 -12 -2z"/>
<path d="M11901 1444 c0 -11 3 -14 6 -6 3 7 2 16 -1 19 -3 4 -6 -2 -5 -13z"/>
<path d="M3725 1439 c-4 -6 -5 -12 -2 -15 2 -3 7 2 10 11 7 17 1 20 -8 4z"/>
<path d="M14030 1441 c0 -10 19 -25 25 -20 1 2 -3 10 -11 17 -8 7 -14 8 -14 3z"/>
<path d="M1901 1419 c-10 -18 -15 -19 -22 -8 -7 11 -9 10 -9 -5 0 -14 -5 -17
-20 -13 -17 4 -20 2 -15 -14 5 -14 2 -19 -12 -19 -11 0 -24 5 -31 12 -9 9 -12
9 -12 -1 0 -7 -4 -9 -10 -6 -5 3 -10 2 -10 -4 0 -5 3 -11 8 -14 4 -2 2 -2 -5
-1 -16 4 -25 -10 -17 -30 5 -12 11 -13 24 -6 10 6 28 10 39 10 12 0 21 3 21 8
0 7 48 32 63 32 5 0 6 -7 3 -16 -3 -8 -2 -12 4 -9 6 3 10 13 10 21 0 9 10 24
23 35 12 10 16 18 10 19 -7 0 -13 -5 -13 -11 0 -5 -5 -7 -10 -4 -6 4 -8 15 -5
26 8 25 3 24 -14 -2z"/>
<path d="M11102 1431 c4 -13 18 -16 19 -4 0 4 -5 9 -11 12 -7 2 -11 -2 -8 -8z"/>
<path d="M13866 1418 c-3 -13 -2 -26 3 -31 4 -4 8 6 9 23 1 36 -3 39 -12 8z"/>
<path d="M1360 1416 c0 -8 4 -17 9 -20 5 -4 7 3 4 14 -6 23 -13 26 -13 6z"/>
<path d="M3750 1420 c-8 -5 -12 -11 -9 -14 2 -3 11 -1 19 4 8 5 12 11 9 14 -2
3 -11 1 -19 -4z"/>
<path d="M11146 1415 c-10 -8 -15 -18 -11 -24 9 -16 25 -13 25 3 0 8 5 16 12
18 7 3 8 7 2 10 -5 4 -17 0 -28 -7z"/>
<path d="M11773 1422 c-23 -3 -30 -16 -15 -26 8 -4 49 22 41 27 -2 1 -14 1
-26 -1z"/>
<path d="M2260 1416 c0 -2 7 -7 16 -10 8 -3 12 -2 9 4 -6 10 -25 14 -25 6z"/>
<path d="M10740 1405 c0 -9 6 -12 15 -9 8 4 12 10 9 15 -8 14 -24 10 -24 -6z"/>
<path d="M13535 1400 c-3 -6 1 -7 9 -4 18 7 21 14 7 14 -6 0 -13 -4 -16 -10z"/>
<path d="M15230 1403 c1 -18 33 -48 52 -49 20 -1 20 -1 -3 17 -13 10 -19 19
-14 19 6 0 3 5 -5 10 -18 12 -30 13 -30 3z"/>
<path d="M1050 1385 c0 -8 2 -15 4 -15 2 0 6 7 10 15 3 8 1 15 -4 15 -6 0 -10
-7 -10 -15z"/>
<path d="M9675 1390 c-3 -5 -1 -10 4 -10 6 0 11 5 11 10 0 6 -2 10 -4 10 -3 0
-8 -4 -11 -10z"/>
<path d="M11701 1384 c0 -11 3 -14 6 -6 3 7 2 16 -1 19 -3 4 -6 -2 -5 -13z"/>
<path d="M8720 1380 c0 -5 5 -10 11 -10 5 0 7 5 4 10 -3 6 -8 10 -11 10 -2 0
-4 -4 -4 -10z"/>
<path d="M13891 1371 c-7 -13 -8 -22 -1 -26 5 -3 10 -1 10 5 0 7 7 10 15 6 19
-7 19 8 1 23 -12 10 -17 8 -25 -8z"/>
<path d="M1937 1374 c-12 -13 -7 -34 8 -34 8 0 15 -4 15 -10 0 -5 -11 -10 -25
-10 -27 0 -33 -12 -12 -27 22 -17 40 -9 54 24 11 28 11 32 -2 27 -9 -4 -18 2
-23 15 -4 12 -11 19 -15 15z"/>
<path d="M3187 1353 c-13 -12 -7 -25 8 -19 8 3 15 0 15 -6 0 -6 2 -9 5 -6 7 7
-5 38 -14 38 -4 0 -11 -3 -14 -7z"/>
<path d="M3340 1350 c0 -5 7 -7 15 -4 8 4 15 8 15 10 0 2 -7 4 -15 4 -8 0 -15
-4 -15 -10z"/>
<path d="M10727 1340 c-3 -11 -1 -20 4 -20 5 0 9 9 9 20 0 11 -2 20 -4 20 -2
0 -6 -9 -9 -20z"/>
<path d="M11420 1356 c0 -9 30 -14 35 -6 4 6 -3 10 -14 10 -12 0 -21 -2 -21
-4z"/>
<path d="M11470 1345 c-8 -9 -8 -15 -2 -15 12 0 26 19 19 26 -2 2 -10 -2 -17
-11z"/>
<path d="M13503 1350 c-31 -12 -29 -22 1 -10 13 5 27 6 32 2 4 -4 4 -1 0 6 -4
6 -8 12 -9 11 -1 0 -12 -4 -24 -9z"/>
<path d="M1488 1344 c-3 -3 -4 -13 -1 -24 5 -17 6 -17 22 -2 11 11 13 20 7 24
-13 9 -21 10 -28 2z"/>
<path d="M13090 1340 c0 -5 5 -10 11 -10 5 0 7 5 4 10 -3 6 -8 10 -11 10 -2 0
-4 -4 -4 -10z"/>
<path d="M8700 1324 c0 -8 5 -12 10 -9 6 3 10 10 10 16 0 5 -4 9 -10 9 -5 0
-10 -7 -10 -16z"/>
<path d="M13050 1330 c0 -6 7 -10 15 -10 8 0 15 2 15 4 0 2 -7 6 -15 10 -8 3
-15 1 -15 -4z"/>
<path d="M920 1326 c0 -2 7 -7 16 -10 8 -3 12 -2 9 4 -6 10 -25 14 -25 6z"/>
<path d="M1015 1320 c-3 -5 -2 -10 4 -10 5 0 13 5 16 10 3 6 2 10 -4 10 -5 0
-13 -4 -16 -10z"/>
<path d="M1440 1320 c0 -5 5 -10 10 -10 6 0 10 5 10 10 0 6 -4 10 -10 10 -5 0
-10 -4 -10 -10z"/>
<path d="M3760 1313 c0 -10 4 -14 8 -8 4 6 11 13 16 18 5 4 2 7 -7 7 -10 0
-17 -8 -17 -17z"/>
<path d="M8640 1316 c0 -8 11 -16 25 -18 14 -3 25 -2 25 2 0 4 -11 12 -25 18
-20 9 -25 9 -25 -2z"/>
<path d="M13150 1325 c0 -2 9 -9 20 -15 16 -9 20 -8 20 5 0 8 -9 15 -20 15
-11 0 -20 -2 -20 -5z"/>
<path d="M13705 1320 c3 -5 11 -10 16 -10 6 0 7 5 4 10 -3 6 -11 10 -16 10 -6
0 -7 -4 -4 -10z"/>
<path d="M13520 1311 c0 -6 4 -13 10 -16 6 -3 7 1 4 9 -7 18 -14 21 -14 7z"/>
<path d="M13039 1302 c6 -2 9 -8 6 -13 -4 -5 1 -6 11 -2 14 5 15 3 4 -17 -9
-16 -15 -19 -23 -11 -20 20 -31 12 -12 -9 10 -11 21 -17 26 -15 4 3 10 -8 14
-24 6 -27 9 -29 30 -21 12 5 26 6 31 2 4 -4 4 -2 0 5 -3 6 -15 10 -26 8 -25
-5 -27 20 -2 34 9 6 12 11 6 11 -17 0 -24 38 -9 44 8 3 16 0 19 -7 3 -7 5 -6
5 3 1 12 -10 16 -45 16 -25 0 -41 -2 -35 -4z"/>
<path d="M13686 1294 c-4 -9 -4 -19 -1 -22 2 -3 7 3 11 12 4 9 4 19 1 22 -2 3
-7 -3 -11 -12z"/>
<path d="M8526 1285 c4 -8 10 -12 15 -9 11 6 2 24 -11 24 -5 0 -7 -7 -4 -15z"/>
<path d="M13720 1280 c6 -11 12 -20 14 -20 2 0 2 9 -1 20 -3 11 -9 20 -15 20
-5 0 -4 -9 2 -20z"/>
<path d="M3770 1280 c0 -5 5 -10 11 -10 5 0 7 5 4 10 -3 6 -8 10 -11 10 -2 0
-4 -4 -4 -10z"/>
<path d="M3799 1283 c-1 -5 -3 -19 -4 -32 -1 -13 -9 -27 -16 -32 -8 -5 -9 -9
-4 -9 20 0 33 16 40 48 4 20 3 32 -4 32 -6 0 -12 -3 -12 -7z"/>
<path d="M11270 1259 c0 -5 5 -7 10 -4 6 3 10 8 10 11 0 2 -4 4 -10 4 -5 0
-10 -5 -10 -11z"/>
<path d="M11615 1260 c-3 -5 -1 -10 4 -10 6 0 11 5 11 10 0 6 -2 10 -4 10 -3
0 -8 -4 -11 -10z"/>
<path d="M13177 1256 c-4 -10 -1 -13 9 -9 7 3 14 9 14 14 0 14 -17 10 -23 -5z"/>
<path d="M17440 1255 c-7 -8 -9 -15 -6 -15 4 0 14 7 22 15 9 8 11 15 6 15 -5
0 -15 -7 -22 -15z"/>
<path d="M487 1219 c-10 -11 -16 -23 -14 -26 5 -5 47 33 47 42 0 12 -17 4 -33
-16z"/>
<path d="M17540 1230 c0 -5 5 -10 11 -10 5 0 7 5 4 10 -3 6 -8 10 -11 10 -2 0
-4 -4 -4 -10z"/>
<path d="M1796 1221 c-3 -5 -16 -7 -28 -3 -13 3 -19 1 -15 -5 11 -18 47 -23
47 -6 0 8 5 11 10 8 6 -3 10 -1 10 4 0 13 -17 14 -24 2z"/>
<path d="M13605 1221 c-2 -5 4 -11 15 -14 11 -3 20 -2 20 3 0 12 -28 21 -35
11z"/>
<path d="M17385 1220 c4 -6 11 -8 16 -5 14 9 11 15 -7 15 -8 0 -12 -5 -9 -10z"/>
<path d="M3740 1216 c0 -2 7 -9 15 -16 13 -11 14 -10 9 4 -5 14 -24 23 -24 12z"/>
<path d="M6600 1209 c0 -5 11 -8 25 -7 14 1 25 5 25 9 0 4 -11 7 -25 7 -14 0
-25 -4 -25 -9z"/>
<path d="M13196 1183 c-6 -14 -5 -15 5 -6 7 7 10 15 7 18 -3 3 -9 -2 -12 -12z"/>
<path d="M13885 1190 c-3 -6 1 -7 9 -4 18 7 21 14 7 14 -6 0 -13 -4 -16 -10z"/>
<path d="M164 1153 c-11 -11 -13 -18 -5 -21 23 -8 10 -22 -16 -16 l-26 7 19
-26 c10 -15 24 -27 31 -27 7 0 17 -8 22 -17 8 -14 10 -10 6 17 -5 31 -4 32 5
11 15 -34 34 -14 21 21 -5 14 -7 29 -4 32 4 3 -4 6 -17 6 -19 0 -20 2 -10 15
17 21 -4 19 -26 -2z"/>
<path d="M17453 1141 c0 -22 4 -28 15 -23 8 3 20 -2 27 -11 11 -15 14 -14 33
8 17 19 18 26 8 34 -14 12 -46 5 -46 -10 0 -5 -5 -9 -11 -9 -5 0 -8 4 -5 9 3
5 0 14 -7 20 -11 8 -14 5 -14 -18z"/>
<path d="M3590 1150 c0 -5 5 -10 11 -10 5 0 7 5 4 10 -3 6 -8 10 -11 10 -2 0
-4 -4 -4 -10z"/>
<path d="M11250 1149 c0 -5 5 -7 10 -4 6 3 10 8 10 11 0 2 -4 4 -10 4 -5 0
-10 -5 -10 -11z"/>
<path d="M3290 1135 c7 -8 20 -15 29 -15 13 1 13 3 -3 15 -26 19 -42 19 -26 0z"/>
<path d="M240 1115 c0 -8 2 -15 4 -15 2 0 6 7 10 15 3 8 1 15 -4 15 -6 0 -10
-7 -10 -15z"/>
<path d="M3509 1105 c-9 -32 0 -48 17 -31 16 16 19 30 5 21 -5 -3 -11 3 -13
12 -3 16 -4 16 -9 -2z"/>
<path d="M3420 1100 c0 -5 10 -10 23 -10 18 0 19 2 7 10 -19 13 -30 13 -30 0z"/>
<path d="M17385 1100 c3 -5 8 -10 11 -10 2 0 4 5 4 10 0 6 -5 10 -11 10 -5 0
-7 -4 -4 -10z"/>
<path d="M13665 1091 c-2 -4 3 -15 11 -26 16 -21 39 -9 29 17 -6 14 -32 20
-40 9z"/>
<path d="M14569 1082 c-10 -2 -19 -12 -22 -22 -7 -26 30 -38 51 -16 10 9 12
16 5 16 -6 0 -13 6 -15 13 -2 7 -10 11 -19 9z"/>
<path d="M17400 1070 c0 -5 5 -10 10 -10 6 0 10 5 10 10 0 6 -4 10 -10 10 -5
0 -10 -4 -10 -10z"/>
<path d="M3490 1063 c0 -6 -15 -10 -32 -8 -33 2 -68 -10 -79 -28 -4 -5 -18 -1
-34 9 l-28 19 17 -28 c10 -15 16 -36 13 -46 -3 -13 1 -21 14 -24 12 -3 17 -1
12 6 -4 6 1 8 14 5 19 -5 20 -3 12 25 -9 32 0 47 30 47 11 0 11 -4 -2 -18 -21
-23 -10 -38 12 -17 9 8 27 24 41 34 14 11 22 23 18 27 -5 4 -8 3 -8 -3z m-100
-63 c0 -5 -7 -10 -15 -10 -8 0 -15 5 -15 10 0 6 7 10 15 10 8 0 15 -4 15 -10z"/>
<path d="M14465 1040 c3 -5 13 -10 21 -10 8 0 12 5 9 10 -3 6 -13 10 -21 10
-8 0 -12 -4 -9 -10z"/>
<path d="M6710 900 c0 -5 10 -10 23 -10 18 0 19 2 7 10 -19 13 -30 13 -30 0z"/>
<path d="M6705 860 c3 -5 11 -10 16 -10 6 0 7 5 4 10 -3 6 -11 10 -16 10 -6 0
-7 -4 -4 -10z"/>
<path d="M6810 820 c0 -19 3 -21 12 -12 9 9 9 15 0 24 -9 9 -12 7 -12 -12z"/>
<path d="M17925 801 c-3 -6 -5 -11 -3 -12 27 -6 38 -5 35 4 -5 15 -24 20 -32
8z"/>
<path d="M13770 781 c0 -8 41 -23 47 -17 2 1 -8 8 -22 14 -14 6 -25 8 -25 3z"/>
<path d="M9015 770 c-7 -12 2 -30 16 -30 12 0 12 27 0 35 -5 3 -12 1 -16 -5z"/>
<path d="M13885 760 c-3 -5 -1 -10 4 -10 6 0 11 5 11 10 0 6 -2 10 -4 10 -3 0
-8 -4 -11 -10z"/>
<path d="M3727 753 c-4 -3 -7 -11 -7 -17 0 -6 5 -5 12 2 6 6 9 14 7 17 -3 3
-9 2 -12 -2z"/>
<path d="M3588 743 c7 -3 16 -2 19 1 4 3 -2 6 -13 5 -11 0 -14 -3 -6 -6z"/>
<path d="M9165 740 c3 -5 8 -10 11 -10 2 0 4 5 4 10 0 6 -5 10 -11 10 -5 0 -7
-4 -4 -10z"/>
<path d="M3545 730 c-3 -5 -1 -10 4 -10 6 0 11 5 11 10 0 6 -2 10 -4 10 -3 0
-8 -4 -11 -10z"/>
<path d="M13948 682 c-24 -5 -23 -29 2 -42 11 -6 20 -7 19 -3 -3 19 2 23 21
13 14 -7 20 -7 20 0 0 5 -7 10 -16 10 -9 0 -12 5 -8 12 4 6 3 8 -4 4 -5 -3
-12 -3 -14 2 -1 4 -11 6 -20 4z m22 -16 c0 -2 -7 -6 -15 -10 -8 -3 -15 -1 -15
4 0 6 7 10 15 10 8 0 15 -2 15 -4z"/>
<path d="M7084 650 c-1 -16 2 -27 6 -25 4 2 16 -5 28 -15 23 -21 37 -27 27
-10 -3 6 -2 10 4 10 17 0 1 28 -20 33 -10 3 -19 12 -19 21 0 30 -25 16 -26
-14z"/>
<path d="M3860 645 c14 -7 23 -17 20 -22 -3 -4 6 -9 20 -11 20 -2 22 -1 10 8
-11 9 -12 13 -2 17 23 9 1 23 -36 23 -37 -1 -37 -1 -12 -15z"/>
<path d="M4460 616 c0 -15 18 -31 26 -23 7 7 -7 37 -17 37 -5 0 -9 -6 -9 -14z"/>
<path d="M4423 591 c-30 -25 -29 -31 5 -30 18 1 21 3 9 6 -18 5 -18 6 -1 24
22 24 16 24 -13 0z"/>
<path d="M3592 529 c-25 -20 -21 -44 6 -34 8 3 19 0 24 -7 5 -8 6 0 4 20 -5
43 -7 44 -34 21z"/>
<path d="M16098 539 c-43 -25 -8 -103 60 -138 67 -33 86 -33 183 0 107 38 133
64 108 108 -8 14 -27 30 -42 35 -35 13 -69 -11 -116 -82 l-35 -51 -16 37 c-19
42 -82 102 -108 102 -9 0 -25 -5 -34 -11z"/>
<path d="M7181 528 c-27 -10 -48 -48 -26 -48 8 0 15 -8 15 -17 1 -17 2 -17 13
-1 9 12 17 14 30 6 10 -5 15 -14 11 -19 -3 -6 11 -8 35 -7 44 3 49 13 27 43
-8 11 -12 25 -9 32 4 9 0 11 -11 7 -9 -3 -16 -1 -16 5 0 12 -37 11 -69 -1z"/>
<path d="M4440 500 c-8 -5 -11 -12 -7 -16 4 -4 13 -2 19 4 15 15 7 24 -12 12z"/>
<path d="M6968 498 c9 -9 15 -9 24 0 9 9 7 12 -12 12 -19 0 -21 -3 -12 -12z"/>
<path d="M3444 489 c-4 -7 -3 -9 4 -5 5 3 13 0 15 -6 4 -9 6 -10 6 -1 1 17
-16 25 -25 12z"/>
<path d="M3310 460 c0 -5 5 -10 11 -10 5 0 7 5 4 10 -3 6 -8 10 -11 10 -2 0
-4 -4 -4 -10z"/>
<path d="M10862 416 c-1 -12 7 -27 18 -34 12 -7 20 -8 20 -2 0 5 -4 10 -10 10
-5 0 -10 9 -10 19 0 28 -15 34 -18 7z"/>
<path d="M10925 420 c-10 -11 -15 -20 -11 -20 14 0 46 21 46 30 0 16 -16 11
-35 -10z"/>
<path d="M2982 418 c6 -16 48 -23 48 -8 0 6 -4 9 -9 5 -5 -3 -12 -1 -16 5 -9
14 -27 12 -23 -2z"/>
<path d="M3265 421 c-6 -11 13 -26 22 -17 4 3 1 6 -6 6 -7 0 -9 5 -6 10 3 6 4
10 1 10 -3 0 -7 -4 -11 -9z"/>
<path d="M10828 423 c7 -3 16 -2 19 1 4 3 -2 6 -13 5 -11 0 -14 -3 -6 -6z"/>
<path d="M6920 408 c0 -4 4 -8 9 -8 6 0 12 4 15 8 3 5 -1 9 -9 9 -8 0 -15 -4
-15 -9z"/>
<path d="M13975 410 c-3 -5 -1 -10 4 -10 6 0 11 5 11 10 0 6 -2 10 -4 10 -3 0
-8 -4 -11 -10z"/>
<path d="M7026 397 c9 -24 -5 -41 -22 -26 -9 7 -14 8 -14 1 0 -6 11 -19 25
-30 13 -11 21 -23 17 -27 -4 -5 -1 -5 7 0 8 4 17 2 23 -6 7 -11 11 -11 15 -1
2 6 16 12 29 12 18 0 24 5 24 21 0 11 5 17 10 14 6 -4 7 -11 4 -17 -5 -7 -2
-8 6 -3 10 6 8 12 -10 27 -16 13 -26 15 -35 8 -9 -8 -14 -8 -17 0 -2 6 -11 12
-20 13 -9 2 -23 9 -32 16 -14 12 -16 12 -10 -2z"/>
<path d="M13920 406 c0 -2 7 -9 15 -16 13 -11 14 -10 9 4 -5 14 -24 23 -24 12z"/>
<path d="M3300 380 c0 -5 5 -10 11 -10 5 0 7 5 4 10 -3 6 -8 10 -11 10 -2 0
-4 -4 -4 -10z"/>
<path d="M10795 380 c-3 -5 -1 -10 4 -10 6 0 11 5 11 10 0 6 -2 10 -4 10 -3 0
-8 -4 -11 -10z"/>
<path d="M13900 375 c0 -9 6 -12 15 -9 8 4 12 10 9 15 -8 14 -24 10 -24 -6z"/>
<path d="M9170 347 c0 -9 4 -18 9 -21 5 -4 8 1 7 9 -3 21 -16 31 -16 12z"/>
<path d="M6900 341 c0 -5 5 -13 10 -16 6 -3 10 -2 10 4 0 5 -4 13 -10 16 -5 3
-10 2 -10 -4z"/>
<path d="M11657 341 c-10 -4 -18 -11 -17 -15 1 -5 -4 -13 -12 -17 -9 -6 -2 -9
20 -9 17 0 32 5 32 11 0 5 -5 7 -11 3 -8 -4 -8 0 0 15 7 11 10 21 9 20 -2 0
-11 -4 -21 -8z"/>
<path d="M13890 340 c0 -5 9 -10 21 -10 11 0 17 5 14 10 -3 6 -13 10 -21 10
-8 0 -14 -4 -14 -10z"/>
<path d="M2900 333 c0 -7 -7 -10 -15 -7 -10 4 -15 0 -15 -11 0 -9 -4 -13 -10
-10 -5 3 -10 -2 -11 -12 0 -12 -2 -13 -6 -5 -4 10 -11 8 -29 -9 -30 -28 -51
-32 -58 -12 -5 12 -11 11 -35 -6 -34 -24 -45 -26 -38 -7 10 25 -49 -11 -61
-38 -9 -19 -8 -27 3 -36 8 -7 13 -15 11 -19 -3 -4 -1 -13 4 -21 7 -11 11 -7
16 18 6 32 24 55 24 32 0 -8 9 -10 28 -5 25 6 26 5 8 -8 -18 -13 -15 -14 27
-7 26 4 48 7 50 8 33 13 44 12 77 -6 l38 -20 7 21 c4 12 8 25 9 29 3 17 52 68
66 69 11 0 11 2 2 6 -7 3 -20 -1 -28 -8 -14 -11 -16 -9 -12 16 2 23 -1 30 -17
33 -11 3 -23 9 -27 16 -6 8 -8 8 -8 -1z"/>
<path d="M2975 330 c-3 -5 1 -10 10 -10 9 0 13 5 10 10 -3 6 -8 10 -10 10 -2
0 -7 -4 -10 -10z"/>
<path d="M4350 329 c0 -5 5 -7 10 -4 6 3 10 8 10 11 0 2 -4 4 -10 4 -5 0 -10
-5 -10 -11z"/>
<path d="M2997 316 c-14 -11 -15 -15 -4 -19 15 -5 37 10 37 25 0 12 -12 9 -33
-6z"/>
<path d="M3097 315 c3 -8 9 -12 14 -9 12 7 11 11 -5 17 -10 4 -13 1 -9 -8z"/>
<path d="M9350 310 c0 -14 15 -19 29 -11 9 6 7 10 -8 14 -12 3 -21 1 -21 -3z"/>
<path d="M2770 301 c0 -6 4 -13 10 -16 6 -3 7 1 4 9 -7 18 -14 21 -14 7z"/>
<path d="M13846 293 c-6 -14 -5 -15 5 -6 7 7 10 15 7 18 -3 3 -9 -2 -12 -12z"/>
<path d="M9147 289 c7 -7 15 -10 18 -7 3 3 -2 9 -12 12 -14 6 -15 5 -6 -5z"/>
<path d="M9488 262 c-10 -2 -18 -8 -18 -13 0 -13 27 -11 35 2 9 13 4 16 -17
11z"/>
<path d="M9510 232 c-11 -12 -10 -13 8 -8 17 6 20 3 15 -16 -4 -19 -2 -18 11
6 9 15 16 30 16 32 0 9 -38 -2 -50 -14z"/>
<path d="M11265 226 c10 -14 19 -26 22 -26 7 0 -17 39 -28 46 -6 3 -3 -5 6
-20z"/>
<path d="M2980 229 c0 -15 18 -19 23 -6 3 8 -1 14 -9 14 -8 0 -14 -4 -14 -8z"/>
<path d="M9610 225 c7 -9 15 -13 17 -11 7 7 -7 26 -19 26 -6 0 -6 -6 2 -15z"/>
<path d="M2260 209 c0 -15 26 -39 42 -39 10 0 10 2 -1 9 -7 5 -11 13 -7 19 3
5 -1 13 -10 16 -21 8 -24 8 -24 -5z"/>
<path d="M9160 209 c0 -5 5 -7 10 -4 6 3 10 8 10 11 0 2 -4 4 -10 4 -5 0 -10
-5 -10 -11z"/>
<path d="M9565 210 c-3 -5 -1 -10 4 -10 6 0 11 5 11 10 0 6 -2 10 -4 10 -3 0
-8 -4 -11 -10z"/>
<path d="M9810 210 c0 -6 7 -10 15 -10 8 0 15 2 15 4 0 2 -7 6 -15 10 -8 3
-15 1 -15 -4z"/>
<path d="M11330 199 c0 -5 5 -7 10 -4 6 3 10 8 10 11 0 2 -4 4 -10 4 -5 0 -10
-5 -10 -11z"/>
<path d="M2340 187 c0 -7 -9 -18 -20 -25 -11 -7 -17 -18 -14 -27 3 -8 10 -12
15 -9 5 3 6 10 3 16 -4 6 1 8 15 3 19 -6 21 -3 19 24 -2 29 -18 45 -18 18z"/>
<path d="M7045 189 c-4 -6 -4 -13 -1 -16 3 -4 6 -1 6 6 0 7 5 9 12 5 7 -4 8
-3 4 4 -9 15 -13 15 -21 1z"/>
<path d="M11301 186 c-9 -10 -9 -16 -1 -21 6 -4 9 -14 5 -24 -5 -14 -4 -14 12
2 15 15 16 19 4 26 -7 5 -10 14 -7 20 10 16 1 14 -13 -3z"/>
<path d="M4416 178 c4 -7 14 -21 22 -31 14 -16 14 -19 0 -34 -13 -12 -14 -22
-6 -44 10 -28 28 -40 28 -19 0 6 -4 10 -10 10 -5 0 -10 5 -10 10 0 6 7 10 15
10 9 0 18 7 21 15 4 8 9 13 13 11 4 -3 13 -1 21 4 24 15 -20 51 -45 37 -15 -8
-17 -7 -12 7 5 11 3 15 -5 10 -8 -5 -9 -2 -5 9 5 13 1 17 -14 17 -13 0 -18 -4
-13 -12z"/>
<path d="M4530 149 c0 -5 5 -7 10 -4 6 3 10 8 10 11 0 2 -4 4 -10 4 -5 0 -10
-5 -10 -11z"/>
<path d="M7024 143 c-10 -10 -22 -18 -27 -18 -6 0 -12 -6 -14 -12 -3 -7 -1
-13 4 -13 12 0 77 60 65 60 -6 0 -18 -8 -28 -17z"/>
<path d="M2754 138 c-4 -5 -4 -11 -1 -14 6 -6 37 6 37 15 0 11 -30 9 -36 -1z"/>
<path d="M10450 138 c0 -9 5 -20 11 -23 17 -11 18 -2 3 19 -12 17 -14 17 -14
4z"/>
<path d="M10903 135 c0 -8 4 -12 9 -9 4 3 8 9 8 15 0 5 -4 9 -8 9 -5 0 -9 -7
-9 -15z"/>
<path d="M9648 133 c7 -3 16 -2 19 1 4 3 -2 6 -13 5 -11 0 -14 -3 -6 -6z"/>
<path d="M10390 130 c-9 -6 -10 -10 -3 -10 6 0 15 5 18 10 8 12 4 12 -15 0z"/>
<path d="M4232 117 c-15 -18 -10 -42 15 -69 11 -13 18 -29 16 -35 -7 -18 32
-16 47 2 10 12 10 18 0 31 -11 13 -10 16 8 21 26 6 19 23 -10 23 -13 0 -18 5
-15 14 10 25 -43 36 -61 13z"/>
<path d="M9190 110 c0 -5 7 -7 15 -4 8 4 15 8 15 10 0 2 -7 4 -15 4 -8 0 -15
-4 -15 -10z"/>
<path d="M10541 104 c0 -11 3 -14 6 -6 3 7 2 16 -1 19 -3 4 -6 -2 -5 -13z"/>
<path d="M11080 105 c0 -17 28 -20 50 -4 13 9 12 10 -2 5 -10 -3 -18 -1 -18 4
0 6 -7 10 -15 10 -8 0 -15 -7 -15 -15z"/>
<path d="M2264 92 c-13 -21 5 -45 26 -32 9 6 9 12 1 29 -14 25 -13 25 -27 3z"/>
<path d="M2658 103 c7 -3 16 -2 19 1 4 3 -2 6 -13 5 -11 0 -14 -3 -6 -6z"/>
<path d="M2740 95 c0 -8 5 -15 10 -15 6 0 10 7 10 15 0 8 -4 15 -10 15 -5 0
-10 -7 -10 -15z"/>
<path d="M11242 103 c-19 -8 -4 -23 24 -23 16 0 24 5 22 13 -5 13 -26 18 -46
10z"/>
<path d="M6995 90 c-3 -5 0 -10 7 -11 7 0 4 -4 -7 -9 -19 -7 -19 -8 -2 -15 22
-9 42 8 34 29 -7 18 -23 21 -32 6z"/>
<path d="M9989 85 c-1 -6 -1 -13 0 -17 0 -5 -3 -8 -8 -8 -5 0 -4 -13 2 -30 8
-21 14 -27 22 -19 7 8 6 13 -2 16 -7 3 -13 11 -13 18 0 7 6 15 13 18 10 4 10
7 0 18 -7 7 -14 9 -14 4z"/>
<path d="M10080 76 c0 -9 5 -16 10 -16 6 0 10 4 10 9 0 6 -4 13 -10 16 -5 3
-10 -1 -10 -9z"/>
<path d="M10290 71 c0 -25 6 -27 13 -6 4 8 2 17 -3 20 -6 4 -10 -3 -10 -14z"/>
<path d="M10336 67 c3 -10 9 -15 12 -12 3 3 0 11 -7 18 -10 9 -11 8 -5 -6z"/>
<path d="M9930 50 c6 -11 15 -20 20 -20 6 0 5 9 -2 20 -7 11 -16 20 -21 20 -4
0 -3 -9 3 -20z"/>
<path d="M11116 54 c-9 -22 3 -32 14 -14 12 19 12 30 1 30 -5 0 -12 -7 -15
-16z"/>
<path d="M11234 44 c-2 -25 10 -32 21 -14 4 6 11 8 16 5 5 -3 6 1 3 10 -4 9
-9 13 -12 11 -3 -3 -10 -2 -16 3 -7 6 -11 1 -12 -15z"/>
<path d="M2220 50 c0 -5 5 -10 10 -10 6 0 10 5 10 10 0 6 -4 10 -10 10 -5 0
-10 -4 -10 -10z"/>
<path d="M4471 44 c0 -11 3 -14 6 -6 3 7 2 16 -1 19 -3 4 -6 -2 -5 -13z"/>
<path d="M11145 40 c3 -5 8 -10 11 -10 2 0 4 5 4 10 0 6 -5 10 -11 10 -5 0 -7
-4 -4 -10z"/>
<path d="M1946 33 c-15 -4 -16 -7 -5 -15 10 -7 8 -8 -9 -5 -12 3 -20 1 -16 -4
9 -16 33 -10 44 11 6 11 9 19 8 19 -2 -1 -12 -4 -22 -6z"/>
<path d="M2296 23 c-6 -14 -5 -15 5 -6 7 7 10 15 7 18 -3 3 -9 -2 -12 -12z"/>
<path d="M2637 33 c-10 -9 -9 -33 1 -33 4 0 8 9 8 20 0 23 0 22 -9 13z"/>
<path d="M4446 15 c-3 -8 -1 -15 4 -15 6 0 10 7 10 15 0 19 -6 19 -14 0z"/>
<path d="M1975 10 c3 -5 8 -10 11 -10 2 0 4 5 4 10 0 6 -5 10 -11 10 -5 0 -7
-4 -4 -10z"/>
<path d="M9925 10 c-3 -5 -1 -10 4 -10 6 0 11 5 11 10 0 6 -2 10 -4 10 -3 0
-8 -4 -11 -10z"/>
<path d="M10045 10 c3 -5 11 -10 16 -10 6 0 7 5 4 10 -3 6 -11 10 -16 10 -6 0
-7 -4 -4 -10z"/>
</g>
</svg>
